# Blender 3.3.2
# www.blender.org
mtllib megamind.mtl
o megamind-2024-10-31-22-23-42-338.001
v -0.092152 1.526658 0.029238
v -0.107607 1.581346 0.046593
v -0.136511 1.639451 -0.132534
v 0.000500 1.297899 -0.053340
v -0.195456 1.314256 -0.018974
v -0.082964 1.367479 -0.004593
v 0.088003 0.106981 0.066210
v 0.085340 0.345994 0.136146
v 0.046658 0.097703 0.019503
v 0.104796 0.804002 0.000501
v 0.067098 1.010545 0.052608
v -0.025112 0.800828 0.049735
v -0.077715 0.112596 -0.294462
v -0.147958 0.346727 -0.166037
v -0.050896 0.337694 -0.162557
v 0.111079 0.462450 0.130768
v 0.052859 0.731248 -0.033944
v 0.104796 0.804002 0.000501
v 0.057582 0.003709 0.164223
v 0.154870 -0.001174 0.267649
v 0.097904 -0.002150 0.277189
v 0.080592 0.453416 0.163074
v 0.111079 0.462450 0.130768
v 0.080182 0.488573 0.168208
v 0.085340 0.345994 0.136146
v 0.126628 0.356493 0.077731
v 0.029342 0.353807 0.085367
v 0.152869 0.719774 0.121527
v 0.236239 0.758836 0.112676
v 0.188055 0.772996 0.110378
v 0.041327 1.459031 0.031454
v 0.017855 1.452440 0.167382
v -0.004206 1.443895 0.071767
v -0.187018 0.990526 -0.049962
v -0.256733 0.943162 -0.097458
v -0.253040 1.000291 -0.084659
v 0.184388 1.314012 0.081966
v -0.045394 1.260789 0.145074
v 0.105816 1.237596 0.114222
v -0.088874 1.586473 0.103444
v -0.107607 1.581346 0.046593
v -0.092152 1.526658 0.029238
v -0.145305 1.709031 -0.008148
v -0.136511 1.639451 -0.132534
v -0.107607 1.581346 0.046593
v -0.090256 1.634324 0.130966
v -0.107607 1.581346 0.046593
v -0.088874 1.586473 0.103444
v -0.101214 0.018358 -0.151349
v -0.130754 0.025438 -0.322655
v -0.073826 0.024949 -0.302453
v -0.128032 0.435350 -0.077987
v -0.096251 0.411424 -0.055773
v -0.095258 0.440477 -0.033286
v -0.104999 0.316942 -0.111607
v -0.050896 0.337694 -0.162557
v -0.147958 0.346727 -0.166037
v -0.261080 0.998582 -0.027818
v -0.156919 1.104539 -0.032260
v -0.223340 1.113817 0.022468
v -0.168236 0.708787 -0.049625
v -0.186789 0.769334 -0.035791
v -0.206683 0.706346 0.001110
v 0.032351 1.408983 0.059868
v 0.066889 1.478074 -0.027751
v -0.005705 1.414842 -0.025181
v -0.005705 1.414842 -0.025181
v 0.066889 1.478074 -0.027751
v -0.016672 1.523973 -0.173876
v -0.271744 0.710985 -0.033417
v -0.206683 0.706346 0.001110
v -0.214517 0.765916 0.006174
v -0.214517 0.765916 0.006174
v -0.206683 0.706346 0.001110
v -0.186789 0.769334 -0.035791
v -0.060922 1.410692 0.050363
v -0.084140 1.477586 -0.020418
v -0.005705 1.414842 -0.025181
v -0.005705 1.414842 -0.025181
v -0.084140 1.477586 -0.020418
v -0.016672 1.523973 -0.173876
v -0.092152 1.526658 0.029238
v -0.107607 1.581346 0.046593
v -0.131997 1.554490 -0.010512
v -0.131997 1.554490 -0.010512
v -0.107607 1.581346 0.046593
v -0.140255 1.604539 -0.003043
v -0.060922 1.410692 0.050363
v -0.005705 1.414842 -0.025181
v -0.084140 1.477586 -0.020418
v -0.084140 1.477586 -0.020418
v -0.005705 1.414842 -0.025181
v -0.016672 1.523973 -0.173876
v -0.077715 0.112596 -0.294462
v -0.050896 0.337694 -0.162557
v -0.120420 0.116258 -0.251915
v -0.120420 0.116258 -0.251915
v -0.050896 0.337694 -0.162557
v -0.104999 0.316942 -0.111607
v -0.261080 0.998582 -0.027818
v -0.223340 1.113817 0.022468
v -0.236957 1.032274 -0.057776
v -0.236957 1.032274 -0.057776
v -0.223340 1.113817 0.022468
v -0.238189 1.125535 -0.076091
v -0.120420 0.116258 -0.251915
v -0.104999 0.316942 -0.111607
v -0.129393 0.120408 -0.305062
v -0.129393 0.120408 -0.305062
v -0.104999 0.316942 -0.111607
v -0.147958 0.346727 -0.166037
v 0.120831 1.606492 -0.014521
v 0.095170 1.582322 0.038221
v 0.113589 1.556199 -0.021252
v 0.113589 1.556199 -0.021252
v 0.095170 1.582322 0.038221
v 0.077503 1.527147 0.021719
v 0.213767 0.701951 0.120614
v 0.225298 0.699266 0.046787
v 0.236239 0.758836 0.112676
v 0.236239 0.758836 0.112676
v 0.225298 0.699266 0.046787
v 0.233330 0.784959 0.042006
v 0.032351 1.408983 0.059868
v -0.005705 1.414842 -0.025181
v 0.066889 1.478074 -0.027751
v 0.066889 1.478074 -0.027751
v -0.005705 1.414842 -0.025181
v -0.016672 1.523973 -0.173876
v -0.004235 1.360643 -0.032111
v 0.057506 1.366746 0.026869
v 0.000500 1.297899 -0.053340
v 0.000500 1.297899 -0.053340
v 0.057506 1.366746 0.026869
v 0.181750 1.316697 0.029440
v -0.195456 1.314256 -0.018974
v -0.176831 1.283494 -0.023375
v -0.201248 1.304735 0.029338
v -0.201248 1.304735 0.029338
v -0.176831 1.283494 -0.023375
v -0.183600 1.282274 0.017823
v -0.201248 1.304735 0.029338
v -0.183600 1.282274 0.017823
v -0.134195 1.233446 0.052565
v -0.151490 0.013231 -0.041962
v -0.207257 0.013719 -0.057497
v -0.101214 0.018358 -0.151349
v -0.101214 0.018358 -0.151349
v -0.207257 0.013719 -0.057497
v -0.194874 0.019823 -0.200835
v -0.101214 0.018358 -0.151349
v -0.194874 0.019823 -0.200835
v -0.130754 0.025438 -0.322655
v -0.016200 1.451951 0.169311
v -0.068386 1.486619 0.071606
v -0.052396 1.459520 0.035752
v -0.052396 1.459520 0.035752
v -0.068386 1.486619 0.071606
v -0.092152 1.526658 0.029238
v -0.052396 1.459520 0.035752
v -0.092152 1.526658 0.029238
v -0.007785 1.478074 -0.034473
v 0.236239 0.758836 0.112676
v 0.152869 0.719774 0.121527
v 0.213767 0.701951 0.120614
v 0.213767 0.701951 0.120614
v 0.152869 0.719774 0.121527
v 0.152508 0.691697 0.070147
v 0.213767 0.701951 0.120614
v 0.152508 0.691697 0.070147
v 0.225298 0.699266 0.046787
v -0.025229 0.753221 0.023685
v -0.056751 0.426073 -0.064674
v -0.007152 0.742479 -0.059152
v -0.007152 0.742479 -0.059152
v -0.056751 0.426073 -0.064674
v -0.066033 0.744920 -0.093581
v -0.007152 0.742479 -0.059152
v -0.066033 0.744920 -0.093581
v 0.008229 0.782030 -0.102798
v 0.104796 0.804002 0.000501
v -0.025112 0.800828 0.049735
v 0.063907 0.771531 0.084769
v 0.063907 0.771531 0.084769
v -0.025112 0.800828 0.049735
v -0.014112 0.753221 0.028124
v 0.063907 0.771531 0.084769
v -0.014112 0.753221 0.028124
v 0.040480 0.459520 0.143110
v -0.058334 1.354295 0.044125
v -0.029818 1.347947 0.080638
v -0.060922 1.410692 0.050363
v -0.060922 1.410692 0.050363
v -0.029818 1.347947 0.080638
v -0.004206 1.443895 0.071767
v -0.060922 1.410692 0.050363
v -0.004206 1.443895 0.071767
v -0.052396 1.459520 0.035752
v -0.120081 1.193895 -0.052786
v -0.108220 1.013475 0.013513
v -0.134195 1.233446 0.052565
v -0.134195 1.233446 0.052565
v -0.108220 1.013475 0.013513
v -0.045394 1.260789 0.145074
v -0.134195 1.233446 0.052565
v -0.045394 1.260789 0.145074
v -0.201248 1.304735 0.029338
v 0.000500 1.297899 -0.053340
v -0.082964 1.367479 -0.004593
v -0.004235 1.360643 -0.032111
v -0.004235 1.360643 -0.032111
v -0.082964 1.367479 -0.004593
v -0.005705 1.414842 -0.025181
v -0.004235 1.360643 -0.032111
v -0.005705 1.414842 -0.025181
v 0.057506 1.366746 0.026869
v -0.195456 1.314256 -0.018974
v -0.201248 1.304735 0.029338
v -0.058334 1.354295 0.044125
v -0.058334 1.354295 0.044125
v -0.201248 1.304735 0.029338
v -0.045394 1.260789 0.145074
v -0.058334 1.354295 0.044125
v -0.045394 1.260789 0.145074
v -0.029818 1.347947 0.080638
v -0.107607 1.581346 0.046593
v -0.090256 1.634324 0.130966
v -0.145305 1.709031 -0.008148
v -0.145305 1.709031 -0.008148
v -0.090256 1.634324 0.130966
v -0.108192 1.754441 0.108962
v -0.145305 1.709031 -0.008148
v -0.108192 1.754441 0.108962
v -0.120536 1.787645 0.025720
v 0.085340 0.345994 0.136146
v 0.088003 0.106981 0.066210
v 0.126628 0.356493 0.077731
v 0.126628 0.356493 0.077731
v 0.088003 0.106981 0.066210
v 0.098829 0.106248 0.011844
v 0.126628 0.356493 0.077731
v 0.098829 0.106248 0.011844
v 0.029342 0.353807 0.085367
v -0.013363 1.594285 0.127915
v -0.002289 1.589891 0.132594
v -0.002003 1.632371 0.153469
v -0.002003 1.632371 0.153469
v -0.002289 1.589891 0.132594
v 0.007992 1.594285 0.127714
v -0.002003 1.632371 0.153469
v 0.007992 1.594285 0.127714
v 0.083372 1.634813 0.123404
v -0.005705 1.414842 -0.025181
v 0.032351 1.408983 0.059868
v 0.057506 1.366746 0.026869
v 0.057506 1.366746 0.026869
v 0.032351 1.408983 0.059868
v 0.011759 1.354051 0.059955
v 0.057506 1.366746 0.026869
v 0.011759 1.354051 0.059955
v 0.181750 1.316697 0.029440
v -0.018102 1.615770 -0.188259
v -0.136511 1.639451 -0.132534
v -0.137175 1.742723 -0.125958
v -0.137175 1.742723 -0.125958
v -0.136511 1.639451 -0.132534
v -0.145305 1.709031 -0.008148
v -0.137175 1.742723 -0.125958
v -0.145305 1.709031 -0.008148
v -0.120536 1.787645 0.025720
v 0.040480 0.459520 0.143110
v 0.029342 0.353807 0.085367
v 0.080592 0.453416 0.163074
v 0.080592 0.453416 0.163074
v 0.029342 0.353807 0.085367
v 0.085340 0.345994 0.136146
v 0.080592 0.453416 0.163074
v 0.085340 0.345994 0.136146
v 0.111079 0.462450 0.130768
v -0.195456 1.314256 -0.018974
v -0.058334 1.354295 0.044125
v -0.082964 1.367479 -0.004593
v -0.082964 1.367479 -0.004593
v -0.058334 1.354295 0.044125
v -0.060922 1.410692 0.050363
v -0.082964 1.367479 -0.004593
v -0.060922 1.410692 0.050363
v -0.005705 1.414842 -0.025181
v 0.104564 1.744432 -0.137376
v -0.018569 1.754930 -0.185614
v -0.015473 1.828172 -0.092103
v -0.015473 1.828172 -0.092103
v -0.018569 1.754930 -0.185614
v -0.114709 1.805467 -0.073407
v -0.015473 1.828172 -0.092103
v -0.114709 1.805467 -0.073407
v -0.009573 1.823777 0.027685
v 0.017855 1.452440 0.167382
v 0.000900 1.449022 0.177780
v -0.004206 1.443895 0.071767
v -0.004206 1.443895 0.071767
v 0.000900 1.449022 0.177780
v -0.016200 1.451951 0.169311
v -0.004206 1.443895 0.071767
v -0.016200 1.451951 0.169311
v -0.052396 1.459520 0.035752
v 0.111079 0.462450 0.130768
v 0.072387 0.624071 0.147745
v 0.080182 0.488573 0.168208
v 0.080182 0.488573 0.168208
v 0.072387 0.624071 0.147745
v 0.040480 0.459520 0.143110
v 0.080182 0.488573 0.168208
v 0.040480 0.459520 0.143110
v 0.080592 0.453416 0.163074
v 0.221740 0.986131 -0.006148
v 0.213881 1.029100 0.018744
v 0.245041 1.001024 0.047294
v 0.245041 1.001024 0.047294
v 0.213881 1.029100 0.018744
v 0.212772 1.115770 -0.017150
v 0.245041 1.001024 0.047294
v 0.212772 1.115770 -0.017150
v 0.222234 1.124071 0.082441
v 0.111079 0.462450 0.130768
v 0.104796 0.804002 0.000501
v 0.072387 0.624071 0.147745
v 0.072387 0.624071 0.147745
v 0.104796 0.804002 0.000501
v 0.063907 0.771531 0.084769
v 0.072387 0.624071 0.147745
v 0.063907 0.771531 0.084769
v 0.040480 0.459520 0.143110
v -0.156919 1.104539 -0.032260
v -0.261080 0.998582 -0.027818
v -0.187018 0.990526 -0.049962
v -0.187018 0.990526 -0.049962
v -0.261080 0.998582 -0.027818
v -0.238083 0.810350 -0.023268
v -0.187018 0.990526 -0.049962
v -0.238083 0.810350 -0.023268
v -0.228287 0.802537 -0.057735
v -0.168236 0.708787 -0.049625
v -0.206683 0.706346 0.001110
v -0.212747 0.687303 -0.075571
v -0.212747 0.687303 -0.075571
v -0.206683 0.706346 0.001110
v -0.271744 0.710985 -0.033417
v -0.212747 0.687303 -0.075571
v -0.271744 0.710985 -0.033417
v -0.233891 0.723192 -0.085001
v 0.097285 1.755418 0.099331
v 0.083372 1.634813 0.123404
v 0.101573 1.798875 0.014559
v 0.101573 1.798875 0.014559
v 0.083372 1.634813 0.123404
v 0.124536 1.710984 -0.020065
v 0.101573 1.798875 0.014559
v 0.124536 1.710984 -0.020065
v 0.085988 1.806443 -0.082641
v -0.096251 0.411424 -0.055773
v -0.056751 0.426073 -0.064674
v -0.095258 0.440477 -0.033286
v -0.095258 0.440477 -0.033286
v -0.056751 0.426073 -0.064674
v -0.086737 0.568895 0.012591
v -0.095258 0.440477 -0.033286
v -0.086737 0.568895 0.012591
v -0.128032 0.435350 -0.077987
v 0.154870 -0.001174 0.267649
v 0.057582 0.003709 0.164223
v 0.155967 0.006883 0.125048
v 0.155967 0.006883 0.125048
v 0.057582 0.003709 0.164223
v 0.044294 0.012010 0.010409
v 0.155967 0.006883 0.125048
v 0.044294 0.012010 0.010409
v 0.102985 0.013475 -0.003289
v -0.029818 1.347947 0.080638
v -0.045394 1.260789 0.145074
v 0.011759 1.354051 0.059955
v 0.011759 1.354051 0.059955
v -0.045394 1.260789 0.145074
v 0.184388 1.314012 0.081966
v 0.011759 1.354051 0.059955
v 0.184388 1.314012 0.081966
v 0.181750 1.316697 0.029440
v 0.199729 0.799852 0.059632
v 0.245041 1.001024 0.047294
v 0.167412 0.995164 0.047488
v 0.167412 0.995164 0.047488
v 0.245041 1.001024 0.047294
v 0.222234 1.124071 0.082441
v 0.167412 0.995164 0.047488
v 0.222234 1.124071 0.082441
v 0.141489 1.108934 0.055313
v -0.056751 0.426073 -0.064674
v -0.025229 0.753221 0.023685
v -0.086737 0.568895 0.012591
v -0.086737 0.568895 0.012591
v -0.025229 0.753221 0.023685
v -0.080653 0.730760 0.031513
v -0.086737 0.568895 0.012591
v -0.080653 0.730760 0.031513
v -0.128032 0.435350 -0.077987
v 0.101573 1.798875 0.014559
v -0.004424 1.760301 0.133457
v 0.097285 1.755418 0.099331
v 0.097285 1.755418 0.099331
v -0.004424 1.760301 0.133457
v -0.002003 1.632371 0.153469
v 0.097285 1.755418 0.099331
v -0.002003 1.632371 0.153469
v 0.083372 1.634813 0.123404
v 0.022009 1.550340 0.135391
v 0.059152 1.486375 0.065337
v 0.081544 1.595018 0.095812
v 0.081544 1.595018 0.095812
v 0.059152 1.486375 0.065337
v 0.077503 1.527147 0.021719
v 0.081544 1.595018 0.095812
v 0.077503 1.527147 0.021719
v 0.095170 1.582322 0.038221
v 0.011759 1.354051 0.059955
v 0.032351 1.408983 0.059868
v -0.029818 1.347947 0.080638
v -0.029818 1.347947 0.080638
v 0.032351 1.408983 0.059868
v 0.041327 1.459031 0.031454
v -0.029818 1.347947 0.080638
v 0.041327 1.459031 0.031454
v -0.004206 1.443895 0.071767
v 0.105816 1.237596 0.114222
v -0.045394 1.260789 0.145074
v -0.035910 1.014451 0.101131
v -0.035910 1.014451 0.101131
v -0.045394 1.260789 0.145074
v -0.108220 1.013475 0.013513
v -0.035910 1.014451 0.101131
v -0.108220 1.013475 0.013513
v -0.122030 0.800340 -0.037511
v 0.104091 1.194139 0.019961
v 0.105816 1.237596 0.114222
v 0.067098 1.010545 0.052608
v 0.067098 1.010545 0.052608
v 0.105816 1.237596 0.114222
v -0.035910 1.014451 0.101131
v 0.067098 1.010545 0.052608
v -0.035910 1.014451 0.101131
v -0.025112 0.800828 0.049735
v -0.025112 0.800828 0.049735
v -0.035910 1.014451 0.101131
v -0.122030 0.800340 -0.037511
v -0.238083 0.810350 -0.023268
v -0.261080 0.998582 -0.027818
v -0.262666 0.793992 -0.046939
v -0.262666 0.793992 -0.046939
v -0.261080 0.998582 -0.027818
v -0.256733 0.943162 -0.097458
v -0.262666 0.793992 -0.046939
v -0.256733 0.943162 -0.097458
v -0.228287 0.802537 -0.057735
v -0.228287 0.802537 -0.057735
v -0.256733 0.943162 -0.097458
v -0.187018 0.990526 -0.049962
v -0.050896 0.337694 -0.162557
v -0.056751 0.426073 -0.064674
v -0.104999 0.316942 -0.111607
v -0.104999 0.316942 -0.111607
v -0.056751 0.426073 -0.064674
v -0.096251 0.411424 -0.055773
v -0.104999 0.316942 -0.111607
v -0.096251 0.411424 -0.055773
v -0.147958 0.346727 -0.166037
v -0.147958 0.346727 -0.166037
v -0.096251 0.411424 -0.055773
v -0.128032 0.435350 -0.077987
v 0.167412 0.995164 0.047488
v 0.220269 0.927537 -0.011862
v 0.233330 0.784959 0.042006
v 0.233330 0.784959 0.042006
v 0.220269 0.927537 -0.011862
v 0.234296 0.803026 0.075892
v 0.233330 0.784959 0.042006
v 0.234296 0.803026 0.075892
v 0.236239 0.758836 0.112676
v 0.236239 0.758836 0.112676
v 0.234296 0.803026 0.075892
v 0.188055 0.772996 0.110378
v -0.014112 0.753221 0.028124
v 0.004728 0.742235 -0.054826
v 0.040480 0.459520 0.143110
v 0.040480 0.459520 0.143110
v 0.004728 0.742235 -0.054826
v 0.070189 0.442918 0.108188
v 0.040480 0.459520 0.143110
v 0.070189 0.442918 0.108188
v 0.029342 0.353807 0.085367
v 0.029342 0.353807 0.085367
v 0.070189 0.442918 0.108188
v 0.126628 0.356493 0.077731
v -0.060922 1.410692 0.050363
v -0.052396 1.459520 0.035752
v -0.005705 1.414842 -0.025181
v -0.005705 1.414842 -0.025181
v -0.052396 1.459520 0.035752
v -0.007785 1.478074 -0.034473
v -0.005705 1.414842 -0.025181
v -0.007785 1.478074 -0.034473
v 0.032351 1.408983 0.059868
v 0.032351 1.408983 0.059868
v -0.007785 1.478074 -0.034473
v 0.041327 1.459031 0.031454
v 0.167412 0.995164 0.047488
v 0.233330 0.784959 0.042006
v 0.199729 0.799852 0.059632
v 0.199729 0.799852 0.059632
v 0.233330 0.784959 0.042006
v 0.225298 0.699266 0.046787
v 0.199729 0.799852 0.059632
v 0.225298 0.699266 0.046787
v 0.165262 0.724656 0.045622
v 0.165262 0.724656 0.045622
v 0.225298 0.699266 0.046787
v 0.152508 0.691697 0.070147
v 0.085340 0.345994 0.136146
v 0.126628 0.356493 0.077731
v 0.111079 0.462450 0.130768
v 0.111079 0.462450 0.130768
v 0.126628 0.356493 0.077731
v 0.070189 0.442918 0.108188
v 0.111079 0.462450 0.130768
v 0.070189 0.442918 0.108188
v 0.052859 0.731248 -0.033944
v 0.052859 0.731248 -0.033944
v 0.070189 0.442918 0.108188
v 0.004728 0.742235 -0.054826
v 0.052859 0.731248 -0.033944
v 0.004728 0.742235 -0.054826
v 0.008229 0.782030 -0.102798
v -0.130754 0.025438 -0.322655
v -0.077715 0.112596 -0.294462
v -0.073826 0.024949 -0.302453
v -0.073826 0.024949 -0.302453
v -0.077715 0.112596 -0.294462
v -0.120420 0.116258 -0.251915
v -0.073826 0.024949 -0.302453
v -0.120420 0.116258 -0.251915
v -0.101214 0.018358 -0.151349
v -0.101214 0.018358 -0.151349
v -0.120420 0.116258 -0.251915
v -0.168917 0.051317 -0.066851
v -0.101214 0.018358 -0.151349
v -0.168917 0.051317 -0.066851
v -0.151490 0.013231 -0.041962
v 0.212772 1.115770 -0.017150
v 0.163266 1.285203 0.031635
v 0.222234 1.124071 0.082441
v 0.222234 1.124071 0.082441
v 0.163266 1.285203 0.031635
v 0.164488 1.290086 0.076722
v 0.222234 1.124071 0.082441
v 0.164488 1.290086 0.076722
v 0.141489 1.108934 0.055313
v 0.141489 1.108934 0.055313
v 0.164488 1.290086 0.076722
v 0.105816 1.237596 0.114222
v 0.141489 1.108934 0.055313
v 0.105816 1.237596 0.114222
v 0.104091 1.194139 0.019961
v 0.010943 0.831590 -0.113971
v 0.008229 0.782030 -0.102798
v -0.122030 0.800340 -0.037511
v -0.122030 0.800340 -0.037511
v 0.008229 0.782030 -0.102798
v -0.066033 0.744920 -0.093581
v -0.122030 0.800340 -0.037511
v -0.066033 0.744920 -0.093581
v -0.086287 0.428758 -0.108060
v -0.086287 0.428758 -0.108060
v -0.066033 0.744920 -0.093581
v -0.056751 0.426073 -0.064674
v -0.086287 0.428758 -0.108060
v -0.056751 0.426073 -0.064674
v -0.050896 0.337694 -0.162557
v 0.097904 -0.002150 0.277189
v 0.116697 0.036424 0.254969
v 0.057582 0.003709 0.164223
v 0.057582 0.003709 0.164223
v 0.116697 0.036424 0.254969
v 0.088003 0.106981 0.066210
v 0.057582 0.003709 0.164223
v 0.088003 0.106981 0.066210
v 0.044294 0.012010 0.010409
v 0.044294 0.012010 0.010409
v 0.088003 0.106981 0.066210
v 0.046658 0.097703 0.019503
v 0.044294 0.012010 0.010409
v 0.046658 0.097703 0.019503
v 0.102985 0.013475 -0.003289
v -0.025821 1.551561 0.138113
v -0.021478 1.509568 0.145820
v -0.001268 1.538377 0.152111
v -0.001268 1.538377 0.152111
v -0.021478 1.509568 0.145820
v -0.000659 1.510545 0.155689
v -0.001268 1.538377 0.152111
v -0.000659 1.510545 0.155689
v 0.022009 1.550340 0.135391
v 0.022009 1.550340 0.135391
v -0.000659 1.510545 0.155689
v 0.019323 1.510301 0.143594
v 0.022009 1.550340 0.135391
v 0.019323 1.510301 0.143594
v 0.059152 1.486375 0.065337
v -0.195456 1.314256 -0.018974
v 0.000500 1.297899 -0.053340
v -0.120081 1.193895 -0.052786
v -0.120081 1.193895 -0.052786
v 0.000500 1.297899 -0.053340
v 0.002294 1.018602 -0.069138
v -0.120081 1.193895 -0.052786
v 0.002294 1.018602 -0.069138
v -0.108220 1.013475 0.013513
v -0.108220 1.013475 0.013513
v 0.002294 1.018602 -0.069138
v 0.010943 0.831590 -0.113971
v -0.108220 1.013475 0.013513
v 0.010943 0.831590 -0.113971
v -0.122030 0.800340 -0.037511
v -0.092152 1.526658 0.029238
v -0.136511 1.639451 -0.132534
v -0.007785 1.478074 -0.034473
v -0.007785 1.478074 -0.034473
v -0.136511 1.639451 -0.132534
v -0.018102 1.615770 -0.188259
v -0.007785 1.478074 -0.034473
v -0.018102 1.615770 -0.188259
v 0.077503 1.527147 0.021719
v 0.077503 1.527147 0.021719
v -0.018102 1.615770 -0.188259
v 0.105228 1.641160 -0.143953
v 0.077503 1.527147 0.021719
v 0.105228 1.641160 -0.143953
v 0.095170 1.582322 0.038221
v 0.124536 1.710984 -0.020065
v 0.104564 1.744432 -0.137376
v 0.085988 1.806443 -0.082641
v 0.085988 1.806443 -0.082641
v 0.104564 1.744432 -0.137376
v -0.015473 1.828172 -0.092103
v 0.085988 1.806443 -0.082641
v -0.015473 1.828172 -0.092103
v 0.101573 1.798875 0.014559
v 0.101573 1.798875 0.014559
v -0.015473 1.828172 -0.092103
v -0.009573 1.823777 0.027685
v 0.101573 1.798875 0.014559
v -0.009573 1.823777 0.027685
v -0.004424 1.760301 0.133457
v -0.256733 0.943162 -0.097458
v -0.261080 0.998582 -0.027818
v -0.253040 1.000291 -0.084659
v -0.253040 1.000291 -0.084659
v -0.261080 0.998582 -0.027818
v -0.236957 1.032274 -0.057776
v -0.253040 1.000291 -0.084659
v -0.236957 1.032274 -0.057776
v -0.187018 0.990526 -0.049962
v -0.187018 0.990526 -0.049962
v -0.236957 1.032274 -0.057776
v -0.238189 1.125535 -0.076091
v -0.187018 0.990526 -0.049962
v -0.238189 1.125535 -0.076091
v -0.156919 1.104539 -0.032260
v -0.156919 1.104539 -0.032260
v -0.238189 1.125535 -0.076091
v -0.120081 1.193895 -0.052786
v -0.147958 0.346727 -0.166037
v -0.077715 0.112596 -0.294462
v -0.129393 0.120408 -0.305062
v -0.129393 0.120408 -0.305062
v -0.077715 0.112596 -0.294462
v -0.130754 0.025438 -0.322655
v -0.129393 0.120408 -0.305062
v -0.130754 0.025438 -0.322655
v -0.120420 0.116258 -0.251915
v -0.120420 0.116258 -0.251915
v -0.130754 0.025438 -0.322655
v -0.194874 0.019823 -0.200835
v -0.120420 0.116258 -0.251915
v -0.194874 0.019823 -0.200835
v -0.168917 0.051317 -0.066851
v -0.168917 0.051317 -0.066851
v -0.194874 0.019823 -0.200835
v -0.207257 0.013719 -0.057497
v -0.168917 0.051317 -0.066851
v -0.207257 0.013719 -0.057497
v -0.151490 0.013231 -0.041962
v 0.052859 0.731248 -0.033944
v 0.008229 0.782030 -0.102798
v 0.104796 0.804002 0.000501
v 0.104796 0.804002 0.000501
v 0.008229 0.782030 -0.102798
v 0.010943 0.831590 -0.113971
v 0.104796 0.804002 0.000501
v 0.010943 0.831590 -0.113971
v 0.067098 1.010545 0.052608
v 0.067098 1.010545 0.052608
v 0.010943 0.831590 -0.113971
v 0.002294 1.018602 -0.069138
v 0.067098 1.010545 0.052608
v 0.002294 1.018602 -0.069138
v 0.104091 1.194139 0.019961
v 0.104091 1.194139 0.019961
v 0.002294 1.018602 -0.069138
v 0.000500 1.297899 -0.053340
v 0.104091 1.194139 0.019961
v 0.000500 1.297899 -0.053340
v 0.181750 1.316697 0.029440
v -0.195456 1.314256 -0.018974
v -0.120081 1.193895 -0.052786
v -0.176831 1.283494 -0.023375
v -0.176831 1.283494 -0.023375
v -0.120081 1.193895 -0.052786
v -0.238189 1.125535 -0.076091
v -0.176831 1.283494 -0.023375
v -0.238189 1.125535 -0.076091
v -0.183600 1.282274 0.017823
v -0.183600 1.282274 0.017823
v -0.238189 1.125535 -0.076091
v -0.223340 1.113817 0.022468
v -0.183600 1.282274 0.017823
v -0.223340 1.113817 0.022468
v -0.134195 1.233446 0.052565
v -0.134195 1.233446 0.052565
v -0.223340 1.113817 0.022468
v -0.156919 1.104539 -0.032260
v -0.134195 1.233446 0.052565
v -0.156919 1.104539 -0.032260
v -0.120081 1.193895 -0.052786
v 0.097904 -0.002150 0.277189
v 0.154870 -0.001174 0.267649
v 0.116697 0.036424 0.254969
v 0.116697 0.036424 0.254969
v 0.154870 -0.001174 0.267649
v 0.155967 0.006883 0.125048
v 0.116697 0.036424 0.254969
v 0.155967 0.006883 0.125048
v 0.088003 0.106981 0.066210
v 0.088003 0.106981 0.066210
v 0.155967 0.006883 0.125048
v 0.102985 0.013475 -0.003289
v 0.088003 0.106981 0.066210
v 0.102985 0.013475 -0.003289
v 0.098829 0.106248 0.011844
v 0.098829 0.106248 0.011844
v 0.102985 0.013475 -0.003289
v 0.046658 0.097703 0.019503
v 0.098829 0.106248 0.011844
v 0.046658 0.097703 0.019503
v 0.029342 0.353807 0.085367
v 0.029342 0.353807 0.085367
v 0.046658 0.097703 0.019503
v 0.085340 0.345994 0.136146
v -0.228287 0.802537 -0.057735
v -0.233891 0.723192 -0.085001
v -0.262666 0.793992 -0.046939
v -0.262666 0.793992 -0.046939
v -0.233891 0.723192 -0.085001
v -0.271744 0.710985 -0.033417
v -0.262666 0.793992 -0.046939
v -0.271744 0.710985 -0.033417
v -0.238083 0.810350 -0.023268
v -0.238083 0.810350 -0.023268
v -0.271744 0.710985 -0.033417
v -0.214517 0.765916 0.006174
v -0.238083 0.810350 -0.023268
v -0.214517 0.765916 0.006174
v -0.228287 0.802537 -0.057735
v -0.228287 0.802537 -0.057735
v -0.214517 0.765916 0.006174
v -0.186789 0.769334 -0.035791
v -0.228287 0.802537 -0.057735
v -0.186789 0.769334 -0.035791
v -0.233891 0.723192 -0.085001
v -0.233891 0.723192 -0.085001
v -0.186789 0.769334 -0.035791
v -0.168236 0.708787 -0.049625
v -0.233891 0.723192 -0.085001
v -0.168236 0.708787 -0.049625
v -0.212747 0.687303 -0.075571
v -0.050896 0.337694 -0.162557
v -0.147958 0.346727 -0.166037
v -0.086287 0.428758 -0.108060
v -0.086287 0.428758 -0.108060
v -0.147958 0.346727 -0.166037
v -0.128032 0.435350 -0.077987
v -0.086287 0.428758 -0.108060
v -0.128032 0.435350 -0.077987
v -0.122030 0.800340 -0.037511
v -0.122030 0.800340 -0.037511
v -0.128032 0.435350 -0.077987
v -0.080653 0.730760 0.031513
v -0.122030 0.800340 -0.037511
v -0.080653 0.730760 0.031513
v -0.025112 0.800828 0.049735
v -0.025112 0.800828 0.049735
v -0.080653 0.730760 0.031513
v -0.025229 0.753221 0.023685
v -0.025112 0.800828 0.049735
v -0.025229 0.753221 0.023685
v -0.014112 0.753221 0.028124
v -0.014112 0.753221 0.028124
v -0.025229 0.753221 0.023685
v -0.007152 0.742479 -0.059152
v -0.014112 0.753221 0.028124
v -0.007152 0.742479 -0.059152
v 0.004728 0.742235 -0.054826
v 0.004728 0.742235 -0.054826
v -0.007152 0.742479 -0.059152
v 0.008229 0.782030 -0.102798
v -0.088874 1.586473 0.103444
v -0.092152 1.526658 0.029238
v -0.025821 1.551561 0.138113
v -0.025821 1.551561 0.138113
v -0.092152 1.526658 0.029238
v -0.068386 1.486619 0.071606
v -0.025821 1.551561 0.138113
v -0.068386 1.486619 0.071606
v -0.021478 1.509568 0.145820
v -0.021478 1.509568 0.145820
v -0.068386 1.486619 0.071606
v -0.016200 1.451951 0.169311
v -0.021478 1.509568 0.145820
v -0.016200 1.451951 0.169311
v -0.000659 1.510545 0.155689
v -0.000659 1.510545 0.155689
v -0.016200 1.451951 0.169311
v 0.000900 1.449022 0.177780
v -0.000659 1.510545 0.155689
v 0.000900 1.449022 0.177780
v 0.019323 1.510301 0.143594
v 0.019323 1.510301 0.143594
v 0.000900 1.449022 0.177780
v 0.017855 1.452440 0.167382
v 0.019323 1.510301 0.143594
v 0.017855 1.452440 0.167382
v 0.059152 1.486375 0.065337
v 0.059152 1.486375 0.065337
v 0.017855 1.452440 0.167382
v 0.041327 1.459031 0.031454
v 0.059152 1.486375 0.065337
v 0.041327 1.459031 0.031454
v 0.077503 1.527147 0.021719
v 0.077503 1.527147 0.021719
v 0.041327 1.459031 0.031454
v -0.007785 1.478074 -0.034473
v 0.152508 0.691697 0.070147
v 0.152869 0.719774 0.121527
v 0.165262 0.724656 0.045622
v 0.165262 0.724656 0.045622
v 0.152869 0.719774 0.121527
v 0.188055 0.772996 0.110378
v 0.165262 0.724656 0.045622
v 0.188055 0.772996 0.110378
v 0.199729 0.799852 0.059632
v 0.199729 0.799852 0.059632
v 0.188055 0.772996 0.110378
v 0.234296 0.803026 0.075892
v 0.199729 0.799852 0.059632
v 0.234296 0.803026 0.075892
v 0.245041 1.001024 0.047294
v 0.245041 1.001024 0.047294
v 0.234296 0.803026 0.075892
v 0.220269 0.927537 -0.011862
v 0.245041 1.001024 0.047294
v 0.220269 0.927537 -0.011862
v 0.221740 0.986131 -0.006148
v 0.221740 0.986131 -0.006148
v 0.220269 0.927537 -0.011862
v 0.167412 0.995164 0.047488
v 0.221740 0.986131 -0.006148
v 0.167412 0.995164 0.047488
v 0.213881 1.029100 0.018744
v 0.213881 1.029100 0.018744
v 0.167412 0.995164 0.047488
v 0.141489 1.108934 0.055313
v 0.213881 1.029100 0.018744
v 0.141489 1.108934 0.055313
v 0.212772 1.115770 -0.017150
v 0.212772 1.115770 -0.017150
v 0.141489 1.108934 0.055313
v 0.104091 1.194139 0.019961
v 0.212772 1.115770 -0.017150
v 0.104091 1.194139 0.019961
v 0.163266 1.285203 0.031635
v 0.163266 1.285203 0.031635
v 0.104091 1.194139 0.019961
v 0.181750 1.316697 0.029440
v 0.163266 1.285203 0.031635
v 0.181750 1.316697 0.029440
v 0.164488 1.290086 0.076722
v 0.164488 1.290086 0.076722
v 0.181750 1.316697 0.029440
v 0.184388 1.314012 0.081966
v 0.164488 1.290086 0.076722
v 0.184388 1.314012 0.081966
v 0.105816 1.237596 0.114222
v -0.025821 1.551561 0.138113
v -0.001268 1.538377 0.152111
v 0.000094 1.551072 0.178133
v 0.000094 1.551072 0.178133
v -0.001268 1.538377 0.152111
v 0.022009 1.550340 0.135391
v 0.000094 1.551072 0.178133
v 0.022009 1.550340 0.135391
v 0.007992 1.594285 0.127714
v 0.007992 1.594285 0.127714
v 0.022009 1.550340 0.135391
v 0.081544 1.595018 0.095812
v 0.007992 1.594285 0.127714
v 0.081544 1.595018 0.095812
v 0.083372 1.634813 0.123404
v 0.083372 1.634813 0.123404
v 0.081544 1.595018 0.095812
v 0.095170 1.582322 0.038221
v 0.083372 1.634813 0.123404
v 0.095170 1.582322 0.038221
v 0.124536 1.710984 -0.020065
v 0.124536 1.710984 -0.020065
v 0.095170 1.582322 0.038221
v 0.105228 1.641160 -0.143953
v 0.124536 1.710984 -0.020065
v 0.105228 1.641160 -0.143953
v 0.104564 1.744432 -0.137376
v 0.104564 1.744432 -0.137376
v 0.105228 1.641160 -0.143953
v -0.018102 1.615770 -0.188259
v 0.104564 1.744432 -0.137376
v -0.018102 1.615770 -0.188259
v -0.018569 1.754930 -0.185614
v -0.018569 1.754930 -0.185614
v -0.018102 1.615770 -0.188259
v -0.137175 1.742723 -0.125958
v -0.018569 1.754930 -0.185614
v -0.137175 1.742723 -0.125958
v -0.114709 1.805467 -0.073407
v -0.114709 1.805467 -0.073407
v -0.137175 1.742723 -0.125958
v -0.120536 1.787645 0.025720
v -0.114709 1.805467 -0.073407
v -0.120536 1.787645 0.025720
v -0.009573 1.823777 0.027685
v -0.009573 1.823777 0.027685
v -0.120536 1.787645 0.025720
v -0.108192 1.754441 0.108962
v -0.009573 1.823777 0.027685
v -0.108192 1.754441 0.108962
v -0.004424 1.760301 0.133457
v -0.004424 1.760301 0.133457
v -0.108192 1.754441 0.108962
v -0.090256 1.634324 0.130966
v -0.004424 1.760301 0.133457
v -0.090256 1.634324 0.130966
v -0.002003 1.632371 0.153469
v -0.002003 1.632371 0.153469
v -0.090256 1.634324 0.130966
v -0.088874 1.586473 0.103444
v -0.002003 1.632371 0.153469
v -0.088874 1.586473 0.103444
v -0.013363 1.594285 0.127915
v -0.013363 1.594285 0.127915
v -0.088874 1.586473 0.103444
v -0.025821 1.551561 0.138113
v -0.013363 1.594285 0.127915
v -0.025821 1.551561 0.138113
v -0.002289 1.589891 0.132594
v -0.002289 1.589891 0.132594
v -0.025821 1.551561 0.138113
v 0.000094 1.551072 0.178133
v -0.002289 1.589891 0.132594
v 0.000094 1.551072 0.178133
v 0.007992 1.594285 0.127714
v -0.084140 1.477586 -0.020418
v -0.302459 1.515916 0.087351
v -0.318257 1.621141 -0.222343
v 0.293920 1.518602 0.061118
v 0.278249 1.625779 -0.249297
v 0.066889 1.478074 -0.027751
v -0.084140 1.477586 -0.020418
v -0.318257 1.621141 -0.222343
v -0.016672 1.523973 -0.173876
v -0.016672 1.523973 -0.173876
v -0.318257 1.621141 -0.222343
v -0.022713 1.594774 -0.291457
v -0.016672 1.523973 -0.173876
v -0.022713 1.594774 -0.291457
v 0.066889 1.478074 -0.027751
v 0.066889 1.478074 -0.027751
v -0.022713 1.594774 -0.291457
v 0.278249 1.625779 -0.249297
v 0.066889 1.478074 -0.027751
v 0.278249 1.625779 -0.249297
v 0.293920 1.518602 0.061118
v 0.066889 1.478074 -0.027751
v 0.278249 1.625779 -0.249297
v -0.016672 1.523973 -0.173876
v -0.016672 1.523973 -0.173876
v 0.278249 1.625779 -0.249297
v -0.022713 1.594774 -0.291457
v -0.016672 1.523973 -0.173876
v -0.022713 1.594774 -0.291457
v -0.084140 1.477586 -0.020418
v -0.084140 1.477586 -0.020418
v -0.022713 1.594774 -0.291457
v -0.318257 1.621141 -0.222343
v -0.084140 1.477586 -0.020418
v -0.318257 1.621141 -0.222343
v -0.302459 1.515916 0.087351
v 0.266727 -0.018019 -0.317520
v 0.374452 -0.023390 -0.218451
v 0.308888 0.315233 -0.203734
v -0.238051 0.315965 -0.300422
v -0.293890 -0.022170 -0.329605
v -0.161566 -0.017287 -0.388329
v -0.195456 1.314256 -0.018974
v -0.225289 1.285692 -0.056462
v 0.000500 1.297899 -0.053340
v 0.000500 1.297899 -0.053340
v -0.225289 1.285692 -0.056462
v -0.217484 1.091356 -0.173834
v 0.000500 1.297899 -0.053340
v -0.217484 1.091356 -0.173834
v 0.025811 1.122117 -0.184234
v 0.025811 1.122117 -0.184234
v -0.217484 1.091356 -0.173834
v -0.228443 0.667283 -0.263525
v 0.025811 1.122117 -0.184234
v -0.228443 0.667283 -0.263525
v 0.046498 0.712205 -0.309994
v 0.046498 0.712205 -0.309994
v -0.228443 0.667283 -0.263525
v -0.238051 0.315965 -0.300422
v 0.046498 0.712205 -0.309994
v -0.238051 0.315965 -0.300422
v 0.054086 0.353075 -0.361460
v 0.054086 0.353075 -0.361460
v -0.238051 0.315965 -0.300422
v -0.161566 -0.017287 -0.388329
v 0.054086 0.353075 -0.361460
v -0.161566 -0.017287 -0.388329
v 0.059723 0.011522 -0.401866
v 0.059723 0.011522 -0.401866
v 0.266727 -0.018019 -0.317520
v 0.054086 0.353075 -0.361460
v 0.054086 0.353075 -0.361460
v 0.266727 -0.018019 -0.317520
v 0.308888 0.315233 -0.203734
v 0.054086 0.353075 -0.361460
v 0.308888 0.315233 -0.203734
v 0.046498 0.712205 -0.309994
v 0.046498 0.712205 -0.309994
v 0.308888 0.315233 -0.203734
v 0.292062 0.666795 -0.177200
v 0.046498 0.712205 -0.309994
v 0.292062 0.666795 -0.177200
v 0.025811 1.122117 -0.184234
v 0.025811 1.122117 -0.184234
v 0.292062 0.666795 -0.177200
v 0.250891 1.089891 -0.092734
v 0.025811 1.122117 -0.184234
v 0.250891 1.089891 -0.092734
v 0.000500 1.297899 -0.053340
v 0.000500 1.297899 -0.053340
v 0.250891 1.089891 -0.092734
v 0.212238 1.284227 0.005563
v 0.000500 1.297899 -0.053340
v 0.212238 1.284227 0.005563
v 0.181750 1.316697 0.029440
v 0.059723 0.011522 -0.401866
v -0.161566 -0.017287 -0.388329
v 0.054086 0.353075 -0.361460
v 0.025811 1.122117 -0.184234
v -0.228443 0.667283 -0.263525
v -0.217484 1.091356 -0.173834
v 0.181750 1.316697 0.029440
v 0.212238 1.284227 0.005563
v 0.000500 1.297899 -0.053340
v 0.000500 1.297899 -0.053340
v 0.212238 1.284227 0.005563
v 0.250891 1.089891 -0.092734
v 0.000500 1.297899 -0.053340
v 0.250891 1.089891 -0.092734
v 0.025811 1.122117 -0.184234
v 0.025811 1.122117 -0.184234
v -0.217484 1.091356 -0.173834
v 0.000500 1.297899 -0.053340
v 0.000500 1.297899 -0.053340
v -0.217484 1.091356 -0.173834
v -0.225289 1.285692 -0.056462
v 0.000500 1.297899 -0.053340
v -0.225289 1.285692 -0.056462
v -0.195456 1.314256 -0.018974
v 0.059723 0.011522 -0.401866
v 0.054086 0.353075 -0.361460
v 0.266727 -0.018019 -0.317520
v 0.266727 -0.018019 -0.317520
v 0.054086 0.353075 -0.361460
v 0.308888 0.315233 -0.203734
v 0.266727 -0.018019 -0.317520
v 0.308888 0.315233 -0.203734
v 0.374452 -0.023390 -0.218451
v -0.238051 0.315965 -0.300422
v -0.228443 0.667283 -0.263525
v 0.046498 0.712205 -0.309994
v 0.046498 0.712205 -0.309994
v -0.228443 0.667283 -0.263525
v 0.025811 1.122117 -0.184234
v 0.046498 0.712205 -0.309994
v 0.025811 1.122117 -0.184234
v 0.292062 0.666795 -0.177200
v 0.292062 0.666795 -0.177200
v 0.025811 1.122117 -0.184234
v 0.250891 1.089891 -0.092734
v 0.292062 0.666795 -0.177200
v 0.308888 0.315233 -0.203734
v 0.046498 0.712205 -0.309994
v 0.046498 0.712205 -0.309994
v 0.308888 0.315233 -0.203734
v 0.054086 0.353075 -0.361460
v 0.046498 0.712205 -0.309994
v 0.054086 0.353075 -0.361460
v -0.238051 0.315965 -0.300422
v -0.238051 0.315965 -0.300422
v 0.054086 0.353075 -0.361460
v -0.161566 -0.017287 -0.388329
v -0.238051 0.315965 -0.300422
v -0.161566 -0.017287 -0.388329
v -0.293890 -0.022170 -0.329605
vn -0.9554 -0.2892 0.0604
vn -0.1133 0.4753 -0.8725
vn -0.7125 -0.2044 0.6713
vn 0.3530 -0.1678 0.9205
vn 0.0773 0.4972 -0.8642
vn 0.7395 -0.2280 -0.6334
vn 0.0080 -0.9985 -0.0546
vn 0.7367 -0.0893 0.6703
vn -0.0141 0.9858 0.1672
vn 0.0114 0.1978 0.9802
vn 0.3234 -0.9462 0.0100
vn 0.4778 0.1625 -0.8633
vn 0.2226 0.1759 0.9589
vn -0.8796 -0.3506 0.3215
vn -0.9646 -0.2533 0.0735
vn -0.9222 -0.2124 0.3230
vn 0.0065 -0.9991 -0.0424
vn -0.7101 -0.4156 0.5683
vn 0.0678 0.8968 0.4372
vn 0.5174 -0.4789 0.7092
vn 0.7903 0.1042 0.6039
vn -0.6147 0.7189 0.3246
vn -0.5505 0.6531 0.5200
vn -0.4720 -0.1361 0.8710
vn 0.8304 0.0621 0.5537
vn -0.5727 -0.6813 -0.4560
vn -0.5723 -0.6807 -0.4574
vn -0.7727 -0.3798 0.5086
vn -0.8590 -0.2113 0.4663
vn 0.5727 0.6813 0.4560
vn 0.5723 0.6807 0.4574
vn 0.6091 -0.4537 0.6504
vn 0.6984 -0.4454 0.5602
vn -0.8793 0.4004 -0.2577
vn -0.9884 0.0166 0.1509
vn -0.9858 -0.0385 0.1634
vn -0.8191 -0.3475 0.4563
vn 0.9145 -0.1802 0.3624
vn 0.8179 -0.3887 0.4241
vn 0.9258 -0.3438 0.1571
vn 0.9923 -0.0973 -0.0768
vn 0.6147 -0.7189 -0.3246
vn 0.5505 -0.6531 -0.5200
vn 0.6465 0.2878 -0.7065
vn 0.2683 0.6285 -0.7301
vn -0.8508 -0.4868 -0.1979
vn -0.8134 -0.5620 -0.1503
vn -0.7435 -0.6545 0.1373
vn 0.0038 -0.9990 -0.0451
vn 0.0066 -0.9991 -0.0420
vn 0.0068 -0.9991 -0.0425
vn -0.7397 -0.6528 0.1635
vn -0.8605 -0.5094 0.0013
vn -0.6884 -0.4619 -0.5593
vn 0.0496 0.1188 0.9917
vn -0.2420 -0.8507 0.4666
vn 0.1207 -0.9912 0.0549
vn 0.9609 -0.1546 0.2297
vn 0.5018 -0.0636 -0.8627
vn 0.3064 -0.7566 -0.5776
vn 0.1343 0.9011 0.4124
vn -0.4516 -0.4532 0.7685
vn -0.6056 0.1900 0.7727
vn -0.7925 -0.1029 0.6011
vn -0.4462 0.1998 0.8724
vn -0.4953 0.3273 0.8047
vn -0.9904 -0.1001 -0.0951
vn -0.6750 -0.2055 0.7087
vn -0.6198 -0.3550 0.6999
vn -0.2939 0.2864 -0.9119
vn -0.3192 0.1117 -0.9411
vn 0.6807 0.1110 -0.7241
vn -0.3374 0.9304 0.1429
vn -0.3046 0.6790 0.6680
vn -0.6177 0.5359 0.5756
vn -0.9443 -0.1541 0.2909
vn -0.9408 -0.0802 0.3292
vn -0.9532 0.2043 0.2229
vn 0.8198 -0.1524 0.5520
vn 0.9679 -0.1588 0.1949
vn -0.0827 0.2623 -0.9614
vn -0.4844 -0.3832 0.7865
vn 0.5240 -0.3785 0.7630
vn 0.3039 -0.4777 0.8243
vn 0.7155 0.6418 -0.2760
vn 0.6113 -0.2280 0.7578
vn 0.2726 0.7100 0.6493
vn -0.4161 0.0551 -0.9076
vn -0.9976 -0.0020 -0.0694
vn -0.9558 0.2934 0.0180
vn -0.4573 -0.3887 0.7999
vn -0.6728 -0.2077 0.7100
vn 0.7391 -0.1329 0.6603
vn -0.4302 0.7926 0.4320
vn -0.8984 -0.0888 0.4302
vn -0.5554 0.7473 -0.3649
vn 0.2967 0.7470 -0.5949
vn -0.2840 0.7594 -0.5854
vn -0.2145 0.9756 0.0464
vn 0.2190 -0.9750 0.0366
vn -0.1958 -0.9790 0.0568
vn -0.3330 -0.9422 0.0369
vn 0.8080 0.1332 0.5739
vn -0.5781 0.0892 0.8111
vn -0.4578 -0.1337 0.8789
vn 0.7889 0.4097 -0.4581
vn 0.4535 -0.3361 -0.8255
vn 0.9712 0.2114 -0.1099
vn 0.8969 0.1719 0.4075
vn 0.8250 0.2614 0.5010
vn -0.8649 0.1543 0.4777
vn 0.2583 -0.2144 0.9420
vn 0.2918 0.0587 0.9547
vn 0.9252 -0.2160 0.3119
vn 0.3269 -0.9229 0.2033
vn -0.2007 -0.9469 0.2510
vn -0.6247 -0.5209 -0.5817
vn 0.9932 -0.1165 -0.0095
vn 0.9370 0.1149 0.3298
vn 0.9460 0.2978 -0.1285
vn 0.3769 -0.5750 0.7262
vn 0.5252 -0.3170 0.7898
vn -0.7871 -0.1605 0.5955
vn 0.0098 -0.9984 -0.0563
vn 0.0104 -0.9984 -0.0548
vn 0.0118 -0.9984 -0.0562
vn 0.3152 0.5271 0.7892
vn 0.0556 0.6543 0.7542
vn 0.2211 0.9745 0.0387
vn -0.0022 0.0617 0.9981
vn 0.0228 -0.2707 0.9624
vn -0.2934 -0.1320 0.9468
vn 0.6402 -0.2572 0.7239
vn 0.1867 -0.1210 0.9749
vn -0.9000 -0.0171 0.4355
vn 0.1945 0.8689 0.4552
vn 0.3210 0.1523 0.9348
vn 0.3247 0.1490 0.9340
vn 0.6804 -0.3245 0.6571
vn 0.9541 -0.2450 0.1724
vn 0.8827 -0.3695 0.2903
vn 0.4588 -0.1706 0.8720
vn -0.2248 0.5113 0.8295
vn 0.6796 -0.1144 0.7246
vn 0.1725 -0.1665 0.9708
vn -0.7627 -0.1419 0.6310
vn -0.7667 -0.1021 0.6339
vn 0.9803 -0.1855 0.0676
vn 0.3967 -0.3028 0.8666
vn 0.4121 -0.1934 0.8904
vn -0.6538 -0.2081 0.7275
vn -0.6698 -0.0639 0.7398
vn -0.9972 0.0146 -0.0739
vn -0.2153 -0.3056 -0.9275
vn 0.6059 -0.1004 -0.7892
vn 0.6823 -0.5218 0.5120
vn 0.3624 -0.4988 0.7873
vn -0.8213 -0.2320 0.5212
vn -0.7094 -0.4101 0.5733
vn -0.8477 -0.2537 -0.4659
vn 0.9957 0.0670 -0.0641
vn 0.9993 0.0140 -0.0360
vn 0.1509 0.6363 0.7565
vn -0.9512 -0.2485 -0.1831
vn -0.7796 -0.4224 -0.4624
vn -0.5704 0.4392 -0.6941
vn -0.0828 0.2827 -0.9556
vn -0.8059 -0.0361 -0.5910
vn -0.8259 -0.1085 -0.5533
vn 0.9116 -0.0303 -0.4100
vn 0.6419 -0.4624 -0.6117
vn -0.5070 -0.1368 -0.8510
vn -0.4665 -0.0056 -0.8845
vn 0.0811 0.1465 -0.9859
vn -0.2085 -0.5306 -0.8216
vn 0.8196 -0.1557 0.5513
vn 0.2490 0.4625 -0.8509
vn 0.5729 -0.3344 -0.7483
vn 0.2825 -0.4104 -0.8670
vn 0.0982 -0.7694 -0.6311
vn 0.3335 0.1003 -0.9374
vn 0.7040 -0.0334 0.7095
vn 0.9130 0.3655 0.1814
vn 0.7459 0.5428 0.3859
vn 0.7337 0.5737 0.3641
vn 0.9440 0.3091 -0.1155
vn 0.9434 0.3260 -0.0609
vn -0.3052 -0.0735 0.9494
vn 0.6340 -0.1697 0.7545
vn -0.9263 -0.3354 0.1716
vn -0.4606 -0.1711 -0.8710
vn -0.3392 0.4774 -0.8106
vn -0.6666 0.0767 -0.7415
vn 0.8255 -0.0271 -0.5637
vn 0.7088 0.5441 -0.4489
vn -0.7749 0.5534 0.3053
vn -0.7838 0.5331 0.3184
vn -0.9248 0.3671 0.0997
vn -0.7428 -0.0504 0.6676
vn -0.2285 0.1090 -0.9674
vn -0.4436 0.1172 0.8885
vn -0.4300 0.1059 0.8966
vn 0.5382 0.1190 0.8344
vn 0.5140 0.1389 0.8464
vn 0.8946 0.0313 0.4457
vn -0.1558 0.1755 -0.9721
vn -0.0529 0.0561 -0.9970
vn -0.5583 -0.3183 -0.7662
vn -0.5959 0.1611 -0.7868
vn -0.5252 0.2302 -0.8193
vn -0.6404 -0.7012 -0.3133
vn -0.4163 -0.6911 -0.5909
vn 0.6572 -0.5391 -0.5268
vn 0.3419 -0.7999 -0.4933
vn 0.9551 -0.2933 -0.0420
vn 0.9392 0.3375 -0.0637
vn 0.2113 0.6816 -0.7005
vn 0.2054 0.9777 0.0432
vn 0.2214 0.9749 0.0249
vn 0.2453 0.8365 0.4900
vn -0.9861 0.0944 -0.1366
vn -0.8504 0.5157 -0.1048
vn 0.4704 0.4171 -0.7777
vn -0.0076 -0.1928 -0.9812
vn 0.4768 0.0106 -0.8790
vn 0.3726 -0.3510 -0.8591
vn 0.2464 0.5219 -0.8167
vn 0.2231 0.1745 -0.9591
vn -0.9861 -0.0165 0.1652
vn -0.8141 0.4116 -0.4095
vn -0.7893 0.6139 0.0086
vn -0.7036 0.7099 -0.0306
vn -0.2354 0.4539 0.8594
vn 0.7354 -0.2218 -0.6403
vn 0.7372 -0.1868 -0.6494
vn 0.7739 0.2841 -0.5660
vn 0.8768 0.1501 -0.4568
vn 0.8468 -0.2538 -0.4675
vn 0.6090 0.0487 -0.7917
vn 0.4241 -0.2004 -0.8831
vn -0.8563 -0.5000 -0.1292
vn 0.0051 0.3148 -0.9491
vn -0.9070 0.3981 -0.1372
vn -0.9578 0.2307 0.1717
vn -0.4762 0.1363 0.8687
vn 0.4901 -0.5378 0.6860
vn 0.9152 -0.3214 0.2433
vn 0.1408 0.4418 0.8860
vn 0.6932 0.7193 0.0460
vn 0.7935 0.5996 0.1035
vn 0.8593 0.3866 -0.3349
vn 0.9807 0.0121 0.1951
vn -0.1678 0.1514 -0.9741
vn -0.1786 0.2337 -0.9558
vn -0.6714 -0.2268 0.7055
vn -0.3561 0.3261 -0.8757
vn -0.8052 -0.0085 -0.5929
vn -0.7429 0.1860 0.6430
vn -0.6536 0.1455 0.7428
vn 0.8419 0.5261 0.1200
vn 0.4552 0.8113 0.3668
vn 0.5900 0.2248 -0.7755
vn 0.5028 0.3360 -0.7964
vn 0.4829 0.0549 -0.8739
vn 0.0799 0.5346 -0.8413
vn -0.3414 0.7000 -0.6273
vn -0.5712 0.0997 -0.8147
vn -0.8740 -0.0393 0.4843
vn -0.6347 0.3202 0.7033
vn 0.3036 -0.4579 0.8355
vn -0.3307 -0.4524 0.8282
vn -0.0472 -0.9919 0.1183
vn -0.0630 -0.9911 0.1170
vn 0.2085 -0.7602 -0.6154
vn -0.6141 -0.6010 0.5116
vn -0.8570 0.0353 0.5141
vn -0.8467 0.0101 0.5320
vn -0.8557 0.1262 0.5018
vn -0.4191 0.3096 0.8535
vn -0.3805 0.3040 0.8734
vn 0.4959 0.3046 0.8132
vn 0.4439 0.3311 0.8327
vn 0.8990 0.1468 0.4126
vn 0.7704 -0.6293 0.1025
vn 0.8760 -0.4762 -0.0766
vn 0.6565 -0.4366 -0.6152
vn -0.9540 0.2660 -0.1386
vn -0.8395 0.5335 -0.1028
vn -0.9097 0.4151 0.0104
vn -0.2692 0.8755 0.4014
vn -0.4321 0.1518 0.8890
vn 0.9542 -0.0928 -0.2843
vn 0.9149 0.0164 -0.4034
vn -0.6925 0.0872 -0.7161
vn -0.6476 0.2898 -0.7047
vn -0.4967 -0.0536 -0.8663
vn -0.6679 -0.2921 -0.6846
vn -0.5857 -0.5163 -0.6248
vn -0.1627 0.2288 -0.9598
vn 0.8242 -0.5020 -0.2620
vn 0.8630 -0.5043 0.0312
vn 0.7745 -0.6286 -0.0710
vn 0.7251 -0.6518 0.2222
vn -0.5958 -0.7091 0.3771
vn 0.6057 -0.7271 0.3230
vn 0.8387 0.3416 0.4242
vn 0.3802 0.2755 0.8829
vn 0.3378 -0.5467 0.7662
vn 0.9340 -0.2315 0.2720
vn 0.9693 -0.1254 0.2115
vn 0.9726 -0.2315 -0.0211
vn 0.9865 0.0167 -0.1632
vn 0.3261 0.0622 -0.9433
vn 0.3661 0.0189 -0.9304
vn -0.4506 0.0155 -0.8926
vn -0.3876 0.6695 -0.6337
vn -0.9427 0.3337 0.0046
vn -0.3085 0.9392 0.1507
vn -0.2912 0.8729 0.3914
vn -0.1687 0.8415 0.5132
vn -0.2350 0.1411 0.9617
vn -0.2414 0.1455 0.9594
vn -0.2255 -0.4906 0.8417
vn -0.2205 -0.4972 0.8391
vn -0.3220 0.3076 0.8954
vn -0.2692 0.2972 0.9161
vn -0.7194 0.5096 0.4720
vn -0.0169 0.7605 0.6491
vn -0.3036 -0.9067 -0.2926
vn -0.2882 0.9006 0.3255
vn -0.2298 -0.8990 -0.3728
vn -0.1921 -0.8451 -0.4990
vn 0.4240 -0.7661 -0.4831
vn 0.1531 -0.8834 -0.4429
vn 0.2882 -0.9006 -0.3255
vn -0.2065 0.8935 0.3987
vn -0.1589 0.8422 0.5153
vn 0.4686 0.7673 0.4379
vn 0.1784 0.8878 0.4243
vn 0.3036 0.9067 0.2926
vn -0.6724 -0.1616 0.7224
vn 0.4058 -0.1449 0.9024
vn 0.0356 -0.8084 0.5876
vn 0.0161 -0.5164 0.8562
vn 0.1082 -0.5837 0.8048
vn 0.0680 -0.2081 0.9757
vn 0.2040 -0.2777 0.9387
vn 0.1828 -0.1076 0.9772
vn 0.2189 -0.1339 0.9665
vn 0.2247 -0.2000 0.9537
vn 0.0757 -0.1159 0.9904
vn -0.3888 -0.1146 0.9142
vn -0.5369 -0.2110 0.8168
vn -0.5358 -0.1309 0.8342
vn -0.4865 -0.0889 0.8692
vn -0.4962 -0.2774 0.8227
vn -0.3941 -0.2167 0.8932
vn -0.3755 -0.5877 0.7167
vn -0.2640 -0.4766 0.8385
vn -0.2313 -0.7079 0.6673
vn -0.0757 0.1159 -0.9904
vn -0.0680 0.2081 -0.9757
vn 0.2313 0.7079 -0.6673
vn 0.2640 0.4766 -0.8385
vn 0.3755 0.5877 -0.7167
vn -0.1082 0.5837 -0.8048
vn -0.0161 0.5164 -0.8562
vn -0.0356 0.8084 -0.5876
vn 0.3888 0.1146 -0.9142
vn 0.5369 0.2110 -0.8168
vn 0.6724 0.1616 -0.7224
vn -0.1828 0.1076 -0.9772
vn -0.2040 0.2777 -0.9387
vn 0.4962 0.2774 -0.8227
vn 0.3941 0.2167 -0.8932
vn 0.4865 0.0889 -0.8692
vn 0.5358 0.1309 -0.8342
vn -0.2189 0.1339 -0.9665
vn -0.2247 0.2000 -0.9537
vn -0.4058 0.1449 -0.9024
vt 0.229492 0.719727
vt 0.160156 0.742188
vt 0.241211 0.781250
vt 0.662109 0.845703
vt 0.529297 0.867188
vt 0.590820 0.941406
vt 0.073242 0.333984
vt 0.261719 0.318359
vt 0.073242 0.362305
vt 0.547852 0.465820
vt 0.532227 0.651367
vt 0.663086 0.509766
vt 0.073242 0.362305
vt 0.261719 0.398438
vt 0.261719 0.358398
vt 0.552734 0.147461
vt 0.484375 0.414062
vt 0.547852 0.465820
vt 0.922852 0.565430
vt 0.958984 0.605469
vt 0.932617 0.607422
vt 0.590820 0.127930
vt 0.552734 0.147461
vt 0.596680 0.165039
vt 0.261719 0.318359
vt 0.261719 0.398438
vt 0.261719 0.358398
vt 0.315430 0.045898
vt 0.322266 0.139648
vt 0.310547 0.125000
vt 0.114258 0.606445
vt 0.078125 0.579102
vt 0.084961 0.605469
vt 0.382812 0.401367
vt 0.353516 0.319336
vt 0.352539 0.381836
vt 0.492188 0.885742
vt 0.663086 0.853516
vt 0.503906 0.833984
vt 0.110352 0.711914
vt 0.160156 0.742188
vt 0.149414 0.691406
vt 0.155273 0.824219
vt 0.241211 0.781250
vt 0.160156 0.742188
vt 0.124023 0.780273
vt 0.160156 0.742188
vt 0.119141 0.727539
vt 0.922852 0.565430
vt 0.966797 0.496094
vt 0.931641 0.497070
vt 0.772461 0.147461
vt 0.735352 0.127930
vt 0.728516 0.165039
vt 0.261719 0.432617
vt 0.261719 0.358398
vt 0.261719 0.398438
vt 0.328125 0.400391
vt 0.262695 0.504883
vt 0.322266 0.512695
vt 0.315430 0.045898
vt 0.310547 0.125000
vt 0.328125 0.072266
vt 0.259766 0.005859
vt 0.229492 0.159180
vt 0.040039 0.005859
vt 0.040039 0.005859
vt 0.229492 0.159180
vt 0.040039 0.158203
vt 0.380859 0.098633
vt 0.328125 0.072266
vt 0.322266 0.139648
vt 0.322266 0.139648
vt 0.328125 0.072266
vt 0.310547 0.125000
vt 0.259766 0.005859
vt 0.229492 0.159180
vt 0.040039 0.005859
vt 0.040039 0.005859
vt 0.229492 0.159180
vt 0.040039 0.158203
vt 0.170898 0.460938
vt 0.163086 0.509766
vt 0.216797 0.503906
vt 0.216797 0.503906
vt 0.163086 0.509766
vt 0.196289 0.534180
vt 0.259766 0.005859
vt 0.040039 0.005859
vt 0.229492 0.159180
vt 0.229492 0.159180
vt 0.040039 0.005859
vt 0.040039 0.158203
vt 0.073242 0.362305
vt 0.261719 0.358398
vt 0.073242 0.333984
vt 0.073242 0.333984
vt 0.261719 0.358398
vt 0.261719 0.317383
vt 0.328125 0.400391
vt 0.322266 0.512695
vt 0.350586 0.419922
vt 0.350586 0.419922
vt 0.322266 0.512695
vt 0.348633 0.512695
vt 0.073242 0.416016
vt 0.261719 0.432617
vt 0.073242 0.390625
vt 0.073242 0.390625
vt 0.261719 0.432617
vt 0.261719 0.398438
vt 0.196289 0.534180
vt 0.163086 0.509766
vt 0.216797 0.503906
vt 0.216797 0.503906
vt 0.163086 0.509766
vt 0.170898 0.460938
vt 0.328125 0.072266
vt 0.380859 0.098633
vt 0.322266 0.139648
vt 0.322266 0.139648
vt 0.380859 0.098633
vt 0.363281 0.172852
vt 0.259766 0.005859
vt 0.040039 0.005859
vt 0.229492 0.159180
vt 0.229492 0.159180
vt 0.040039 0.005859
vt 0.040039 0.158203
vt 0.662109 0.916016
vt 0.733398 0.941406
vt 0.662109 0.845703
vt 0.662109 0.845703
vt 0.733398 0.941406
vt 0.795898 0.867188
vt 0.345703 0.672852
vt 0.344727 0.646484
vt 0.308594 0.667969
vt 0.308594 0.667969
vt 0.344727 0.646484
vt 0.310547 0.646484
vt 0.308594 0.667969
vt 0.310547 0.646484
vt 0.270508 0.644531
vt 0.932617 0.607422
vt 0.958984 0.605469
vt 0.922852 0.565430
vt 0.922852 0.565430
vt 0.958984 0.605469
vt 0.974609 0.552734
vt 0.922852 0.565430
vt 0.974609 0.552734
vt 0.966797 0.496094
vt 0.035156 0.593750
vt 0.113281 0.641602
vt 0.140625 0.631836
vt 0.140625 0.631836
vt 0.113281 0.641602
vt 0.149414 0.691406
vt 0.140625 0.631836
vt 0.149414 0.691406
vt 0.185547 0.678711
vt 0.322266 0.139648
vt 0.315430 0.045898
vt 0.328125 0.072266
vt 0.328125 0.072266
vt 0.315430 0.045898
vt 0.389648 0.024414
vt 0.328125 0.072266
vt 0.389648 0.024414
vt 0.380859 0.098633
vt 0.911133 0.416016
vt 0.878906 0.203125
vt 0.877930 0.415039
vt 0.877930 0.415039
vt 0.878906 0.203125
vt 0.841797 0.414062
vt 0.877930 0.415039
vt 0.841797 0.414062
vt 0.885742 0.446289
vt 0.547852 0.465820
vt 0.663086 0.509766
vt 0.613281 0.436523
vt 0.613281 0.436523
vt 0.663086 0.509766
vt 0.653320 0.488281
vt 0.613281 0.436523
vt 0.653320 0.488281
vt 0.628906 0.146484
vt 0.143555 0.556641
vt 0.117188 0.591797
vt 0.150391 0.605469
vt 0.150391 0.605469
vt 0.117188 0.591797
vt 0.117188 0.622070
vt 0.150391 0.605469
vt 0.117188 0.622070
vt 0.140625 0.631836
vt 0.885742 0.827148
vt 0.793945 0.651367
vt 0.821289 0.833984
vt 0.821289 0.833984
vt 0.793945 0.651367
vt 0.663086 0.853516
vt 0.821289 0.833984
vt 0.663086 0.853516
vt 0.834961 0.885742
vt 0.662109 0.845703
vt 0.590820 0.941406
vt 0.662109 0.916016
vt 0.662109 0.916016
vt 0.590820 0.941406
vt 0.662109 0.998047
vt 0.662109 0.916016
vt 0.662109 0.998047
vt 0.733398 0.941406
vt 0.872070 0.878906
vt 0.834961 0.885742
vt 0.719727 0.977539
vt 0.719727 0.977539
vt 0.834961 0.885742
vt 0.663086 0.853516
vt 0.719727 0.977539
vt 0.663086 0.853516
vt 0.670898 0.962891
vt 0.160156 0.742188
vt 0.124023 0.780273
vt 0.155273 0.824219
vt 0.155273 0.824219
vt 0.124023 0.780273
vt 0.097656 0.877930
vt 0.155273 0.824219
vt 0.097656 0.877930
vt 0.152344 0.886719
vt 0.261719 0.432617
vt 0.073242 0.416016
vt 0.261719 0.398438
vt 0.261719 0.398438
vt 0.073242 0.416016
vt 0.073242 0.390625
vt 0.261719 0.398438
vt 0.073242 0.390625
vt 0.261719 0.358398
vt 0.040039 0.727539
vt 0.003906 0.727539
vt 0.003906 0.772461
vt 0.003906 0.772461
vt 0.003906 0.727539
vt 0.040039 0.727539
vt 0.003906 0.772461
vt 0.040039 0.727539
vt 0.124023 0.780273
vt 0.662109 0.998047
vt 0.727539 0.997070
vt 0.733398 0.941406
vt 0.733398 0.941406
vt 0.727539 0.997070
vt 0.769531 0.958984
vt 0.733398 0.941406
vt 0.769531 0.958984
vt 0.795898 0.867188
vt 0.293945 0.796875
vt 0.241211 0.781250
vt 0.228516 0.846680
vt 0.228516 0.846680
vt 0.241211 0.781250
vt 0.155273 0.824219
vt 0.228516 0.846680
vt 0.155273 0.824219
vt 0.152344 0.886719
vt 0.628906 0.146484
vt 0.627930 0.031250
vt 0.590820 0.127930
vt 0.590820 0.127930
vt 0.627930 0.031250
vt 0.590820 0.030273
vt 0.590820 0.127930
vt 0.590820 0.030273
vt 0.552734 0.147461
vt 0.529297 0.867188
vt 0.554688 0.958984
vt 0.590820 0.941406
vt 0.590820 0.941406
vt 0.554688 0.958984
vt 0.596680 0.997070
vt 0.590820 0.941406
vt 0.596680 0.997070
vt 0.662109 0.998047
vt 0.228516 0.846680
vt 0.285156 0.889648
vt 0.250977 0.946289
vt 0.250977 0.946289
vt 0.285156 0.889648
vt 0.208008 0.892578
vt 0.250977 0.946289
vt 0.208008 0.892578
vt 0.150391 0.957031
vt 0.078125 0.579102
vt 0.053711 0.582031
vt 0.084961 0.605469
vt 0.084961 0.605469
vt 0.053711 0.582031
vt 0.078125 0.579102
vt 0.084961 0.605469
vt 0.078125 0.579102
vt 0.114258 0.606445
vt 0.552734 0.147461
vt 0.608398 0.273438
vt 0.596680 0.165039
vt 0.596680 0.165039
vt 0.608398 0.273438
vt 0.628906 0.146484
vt 0.596680 0.165039
vt 0.628906 0.146484
vt 0.590820 0.127930
vt 0.352539 0.381836
vt 0.350586 0.419922
vt 0.328125 0.400391
vt 0.328125 0.400391
vt 0.350586 0.419922
vt 0.348633 0.512695
vt 0.328125 0.400391
vt 0.348633 0.512695
vt 0.322266 0.512695
vt 0.552734 0.147461
vt 0.547852 0.465820
vt 0.608398 0.273438
vt 0.608398 0.273438
vt 0.547852 0.465820
vt 0.613281 0.436523
vt 0.608398 0.273438
vt 0.613281 0.436523
vt 0.628906 0.146484
vt 0.262695 0.504883
vt 0.328125 0.400391
vt 0.285156 0.380859
vt 0.285156 0.380859
vt 0.328125 0.400391
vt 0.325195 0.188477
vt 0.285156 0.380859
vt 0.325195 0.188477
vt 0.285156 0.180664
vt 0.315430 0.045898
vt 0.328125 0.072266
vt 0.389648 0.024414
vt 0.389648 0.024414
vt 0.328125 0.072266
vt 0.380859 0.098633
vt 0.389648 0.024414
vt 0.380859 0.098633
vt 0.395508 0.099609
vt 0.097656 0.877930
vt 0.124023 0.780273
vt 0.152344 0.886719
vt 0.152344 0.886719
vt 0.124023 0.780273
vt 0.155273 0.824219
vt 0.152344 0.886719
vt 0.155273 0.824219
vt 0.208008 0.892578
vt 0.735352 0.127930
vt 0.696289 0.146484
vt 0.728516 0.165039
vt 0.728516 0.165039
vt 0.696289 0.146484
vt 0.717773 0.273438
vt 0.728516 0.165039
vt 0.717773 0.273438
vt 0.772461 0.147461
vt 0.958984 0.605469
vt 0.922852 0.565430
vt 0.974609 0.552734
vt 0.974609 0.552734
vt 0.922852 0.565430
vt 0.931641 0.497070
vt 0.974609 0.552734
vt 0.931641 0.497070
vt 0.966797 0.496094
vt 0.653320 0.962891
vt 0.663086 0.853516
vt 0.603516 0.977539
vt 0.603516 0.977539
vt 0.663086 0.853516
vt 0.492188 0.885742
vt 0.603516 0.977539
vt 0.492188 0.885742
vt 0.454102 0.878906
vt 0.285156 0.180664
vt 0.328125 0.400391
vt 0.285156 0.380859
vt 0.285156 0.380859
vt 0.328125 0.400391
vt 0.322266 0.512695
vt 0.285156 0.380859
vt 0.322266 0.512695
vt 0.262695 0.504883
vt 0.696289 0.146484
vt 0.672852 0.488281
vt 0.717773 0.273438
vt 0.717773 0.273438
vt 0.672852 0.488281
vt 0.711914 0.436523
vt 0.717773 0.273438
vt 0.711914 0.436523
vt 0.772461 0.147461
vt 0.152344 0.886719
vt 0.045898 0.916992
vt 0.097656 0.877930
vt 0.097656 0.877930
vt 0.045898 0.916992
vt 0.003906 0.772461
vt 0.097656 0.877930
vt 0.003906 0.772461
vt 0.124023 0.780273
vt 0.035156 0.669922
vt 0.113281 0.641602
vt 0.119141 0.727539
vt 0.119141 0.727539
vt 0.113281 0.641602
vt 0.149414 0.691406
vt 0.119141 0.727539
vt 0.149414 0.691406
vt 0.160156 0.742188
vt 0.143555 0.556641
vt 0.150391 0.605469
vt 0.117188 0.591797
vt 0.117188 0.591797
vt 0.150391 0.605469
vt 0.140625 0.631836
vt 0.117188 0.591797
vt 0.140625 0.631836
vt 0.117188 0.622070
vt 0.503906 0.833984
vt 0.663086 0.853516
vt 0.663086 0.661133
vt 0.663086 0.661133
vt 0.663086 0.853516
vt 0.793945 0.651367
vt 0.663086 0.661133
vt 0.793945 0.651367
vt 0.778320 0.465820
vt 0.440430 0.827148
vt 0.503906 0.833984
vt 0.532227 0.651367
vt 0.532227 0.651367
vt 0.503906 0.833984
vt 0.663086 0.661133
vt 0.532227 0.651367
vt 0.663086 0.661133
vt 0.663086 0.509766
vt 0.663086 0.509766
vt 0.663086 0.661133
vt 0.778320 0.465820
vt 0.325195 0.188477
vt 0.328125 0.400391
vt 0.363281 0.172852
vt 0.363281 0.172852
vt 0.328125 0.400391
vt 0.353516 0.319336
vt 0.363281 0.172852
vt 0.353516 0.319336
vt 0.377930 0.171875
vt 0.377930 0.171875
vt 0.353516 0.319336
vt 0.382812 0.401367
vt 0.706055 0.031250
vt 0.696289 0.146484
vt 0.742188 0.030273
vt 0.742188 0.030273
vt 0.696289 0.146484
vt 0.735352 0.127930
vt 0.742188 0.030273
vt 0.735352 0.127930
vt 0.779297 0.030273
vt 0.779297 0.030273
vt 0.735352 0.127930
vt 0.772461 0.147461
vt 0.382812 0.401367
vt 0.353516 0.319336
vt 0.363281 0.172852
vt 0.363281 0.172852
vt 0.353516 0.319336
vt 0.325195 0.188477
vt 0.363281 0.172852
vt 0.325195 0.188477
vt 0.322266 0.139648
vt 0.322266 0.139648
vt 0.325195 0.188477
vt 0.308594 0.136719
vt 0.415039 0.416016
vt 0.447266 0.415039
vt 0.450195 0.201172
vt 0.450195 0.201172
vt 0.447266 0.415039
vt 0.500977 0.134766
vt 0.450195 0.201172
vt 0.500977 0.134766
vt 0.440430 0.031250
vt 0.440430 0.031250
vt 0.500977 0.134766
vt 0.553711 0.030273
vt 0.150391 0.605469
vt 0.140625 0.631836
vt 0.185547 0.608398
vt 0.185547 0.608398
vt 0.140625 0.631836
vt 0.185547 0.678711
vt 0.185547 0.608398
vt 0.185547 0.678711
vt 0.150391 0.605469
vt 0.150391 0.605469
vt 0.185547 0.678711
vt 0.140625 0.631836
vt 0.382812 0.401367
vt 0.363281 0.172852
vt 0.377930 0.171875
vt 0.377930 0.171875
vt 0.363281 0.172852
vt 0.380859 0.098633
vt 0.377930 0.171875
vt 0.380859 0.098633
vt 0.395508 0.099609
vt 0.395508 0.099609
vt 0.380859 0.098633
vt 0.389648 0.024414
vt 0.590820 0.030273
vt 0.553711 0.030273
vt 0.552734 0.147461
vt 0.552734 0.147461
vt 0.553711 0.030273
vt 0.500977 0.134766
vt 0.552734 0.147461
vt 0.500977 0.134766
vt 0.484375 0.414062
vt 0.484375 0.414062
vt 0.500977 0.134766
vt 0.447266 0.415039
vt 0.484375 0.414062
vt 0.447266 0.415039
vt 0.440430 0.446289
vt 0.006836 0.416016
vt 0.073242 0.362305
vt 0.006836 0.333984
vt 0.006836 0.333984
vt 0.073242 0.362305
vt 0.073242 0.333984
vt 0.006836 0.333984
vt 0.073242 0.333984
vt 0.006836 0.262695
vt 0.006836 0.262695
vt 0.073242 0.333984
vt 0.035156 0.252930
vt 0.006836 0.262695
vt 0.035156 0.252930
vt 0.006836 0.209961
vt 0.348633 0.512695
vt 0.344727 0.646484
vt 0.321289 0.524414
vt 0.321289 0.524414
vt 0.344727 0.646484
vt 0.310547 0.646484
vt 0.321289 0.524414
vt 0.310547 0.646484
vt 0.262695 0.504883
vt 0.262695 0.504883
vt 0.310547 0.646484
vt 0.270508 0.644531
vt 0.262695 0.504883
vt 0.270508 0.644531
vt 0.216797 0.603516
vt 0.873047 0.513672
vt 0.874023 0.458984
vt 0.778320 0.465820
vt 0.778320 0.465820
vt 0.874023 0.458984
vt 0.841797 0.414062
vt 0.778320 0.465820
vt 0.841797 0.414062
vt 0.825195 0.134766
vt 0.825195 0.134766
vt 0.841797 0.414062
vt 0.878906 0.203125
vt 0.825195 0.134766
vt 0.878906 0.203125
vt 0.891602 0.031250
vt 0.006836 0.209961
vt 0.035156 0.252930
vt 0.006836 0.262695
vt 0.006836 0.262695
vt 0.035156 0.252930
vt 0.073242 0.333984
vt 0.006836 0.262695
vt 0.073242 0.333984
vt 0.006836 0.333984
vt 0.006836 0.333984
vt 0.073242 0.333984
vt 0.073242 0.362305
vt 0.006836 0.333984
vt 0.073242 0.362305
vt 0.006836 0.416016
vt 0.035156 0.669922
vt 0.035156 0.636719
vt 0.003906 0.659180
vt 0.003906 0.659180
vt 0.035156 0.636719
vt 0.003906 0.634766
vt 0.003906 0.659180
vt 0.003906 0.634766
vt 0.035156 0.669922
vt 0.035156 0.669922
vt 0.003906 0.634766
vt 0.035156 0.636719
vt 0.035156 0.669922
vt 0.035156 0.636719
vt 0.113281 0.641602
vt 0.872070 0.878906
vt 0.975586 0.867188
vt 0.885742 0.827148
vt 0.885742 0.827148
vt 0.975586 0.867188
vt 0.920898 0.714844
vt 0.885742 0.827148
vt 0.920898 0.714844
vt 0.793945 0.651367
vt 0.793945 0.651367
vt 0.920898 0.714844
vt 0.873047 0.513672
vt 0.793945 0.651367
vt 0.873047 0.513672
vt 0.778320 0.465820
vt 0.229492 0.719727
vt 0.241211 0.781250
vt 0.272461 0.727539
vt 0.272461 0.727539
vt 0.241211 0.781250
vt 0.293945 0.796875
vt 0.272461 0.727539
vt 0.293945 0.796875
vt 0.229492 0.719727
vt 0.229492 0.719727
vt 0.293945 0.796875
vt 0.241211 0.775391
vt 0.229492 0.719727
vt 0.241211 0.775391
vt 0.160156 0.742188
vt 0.155273 0.824219
vt 0.228516 0.846680
vt 0.208008 0.892578
vt 0.208008 0.892578
vt 0.228516 0.846680
vt 0.250977 0.946289
vt 0.208008 0.892578
vt 0.250977 0.946289
vt 0.152344 0.886719
vt 0.152344 0.886719
vt 0.250977 0.946289
vt 0.150391 0.957031
vt 0.152344 0.886719
vt 0.150391 0.957031
vt 0.045898 0.916992
vt 0.353516 0.319336
vt 0.328125 0.400391
vt 0.352539 0.381836
vt 0.352539 0.381836
vt 0.328125 0.400391
vt 0.350586 0.419922
vt 0.352539 0.381836
vt 0.350586 0.419922
vt 0.382812 0.401367
vt 0.382812 0.401367
vt 0.350586 0.419922
vt 0.348633 0.512695
vt 0.382812 0.401367
vt 0.348633 0.512695
vt 0.391602 0.514648
vt 0.391602 0.514648
vt 0.348633 0.512695
vt 0.392578 0.644531
vt 0.261719 0.398438
vt 0.073242 0.362305
vt 0.073242 0.390625
vt 0.073242 0.390625
vt 0.073242 0.362305
vt 0.006836 0.416016
vt 0.073242 0.390625
vt 0.006836 0.416016
vt 0.073242 0.416016
vt 0.073242 0.416016
vt 0.006836 0.416016
vt 0.006836 0.455078
vt 0.073242 0.416016
vt 0.006836 0.455078
vt 0.040039 0.499023
vt 0.040039 0.499023
vt 0.006836 0.455078
vt 0.006836 0.559570
vt 0.040039 0.499023
vt 0.006836 0.559570
vt 0.056641 0.563477
vt 0.484375 0.414062
vt 0.451172 0.458984
vt 0.547852 0.465820
vt 0.547852 0.465820
vt 0.451172 0.458984
vt 0.453125 0.513672
vt 0.547852 0.465820
vt 0.453125 0.513672
vt 0.532227 0.651367
vt 0.532227 0.651367
vt 0.453125 0.513672
vt 0.405273 0.714844
vt 0.532227 0.651367
vt 0.405273 0.714844
vt 0.440430 0.827148
vt 0.440430 0.827148
vt 0.405273 0.714844
vt 0.349609 0.867188
vt 0.440430 0.827148
vt 0.349609 0.867188
vt 0.454102 0.878906
vt 0.345703 0.672852
vt 0.392578 0.644531
vt 0.344727 0.646484
vt 0.344727 0.646484
vt 0.392578 0.644531
vt 0.348633 0.512695
vt 0.344727 0.646484
vt 0.348633 0.512695
vt 0.310547 0.646484
vt 0.310547 0.646484
vt 0.348633 0.512695
vt 0.321289 0.524414
vt 0.310547 0.646484
vt 0.321289 0.524414
vt 0.270508 0.644531
vt 0.270508 0.644531
vt 0.321289 0.524414
vt 0.262695 0.504883
vt 0.270508 0.644531
vt 0.262695 0.504883
vt 0.216797 0.603516
vt 0.056641 0.563477
vt 0.006836 0.559570
vt 0.040039 0.499023
vt 0.040039 0.499023
vt 0.006836 0.559570
vt 0.006836 0.455078
vt 0.040039 0.499023
vt 0.006836 0.455078
vt 0.073242 0.416016
vt 0.073242 0.416016
vt 0.006836 0.455078
vt 0.006836 0.416016
vt 0.073242 0.416016
vt 0.006836 0.416016
vt 0.073242 0.390625
vt 0.073242 0.390625
vt 0.006836 0.416016
vt 0.073242 0.362305
vt 0.073242 0.390625
vt 0.073242 0.362305
vt 0.261719 0.358398
vt 0.261719 0.358398
vt 0.073242 0.362305
vt 0.261719 0.318359
vt 0.377930 0.171875
vt 0.395508 0.099609
vt 0.363281 0.172852
vt 0.363281 0.172852
vt 0.395508 0.099609
vt 0.380859 0.098633
vt 0.363281 0.172852
vt 0.380859 0.098633
vt 0.325195 0.188477
vt 0.325195 0.188477
vt 0.380859 0.098633
vt 0.322266 0.139648
vt 0.325195 0.188477
vt 0.322266 0.139648
vt 0.285156 0.180664
vt 0.285156 0.180664
vt 0.322266 0.139648
vt 0.308594 0.136719
vt 0.285156 0.180664
vt 0.308594 0.136719
vt 0.266602 0.092773
vt 0.266602 0.092773
vt 0.308594 0.136719
vt 0.315430 0.045898
vt 0.266602 0.092773
vt 0.315430 0.045898
vt 0.275391 0.018555
vt 0.891602 0.031250
vt 0.779297 0.030273
vt 0.825195 0.134766
vt 0.825195 0.134766
vt 0.779297 0.030273
vt 0.772461 0.147461
vt 0.825195 0.134766
vt 0.772461 0.147461
vt 0.778320 0.465820
vt 0.778320 0.465820
vt 0.772461 0.147461
vt 0.711914 0.436523
vt 0.778320 0.465820
vt 0.711914 0.436523
vt 0.663086 0.509766
vt 0.663086 0.509766
vt 0.711914 0.436523
vt 0.672852 0.488281
vt 0.663086 0.509766
vt 0.672852 0.488281
vt 0.653320 0.488281
vt 0.653320 0.488281
vt 0.672852 0.488281
vt 0.673828 0.433594
vt 0.653320 0.488281
vt 0.673828 0.433594
vt 0.653320 0.433594
vt 0.653320 0.433594
vt 0.673828 0.433594
vt 0.662109 0.378906
vt 0.119141 0.727539
vt 0.149414 0.691406
vt 0.035156 0.669922
vt 0.035156 0.669922
vt 0.149414 0.691406
vt 0.113281 0.641602
vt 0.035156 0.669922
vt 0.113281 0.641602
vt 0.035156 0.636719
vt 0.035156 0.636719
vt 0.113281 0.641602
vt 0.035156 0.593750
vt 0.035156 0.636719
vt 0.035156 0.593750
vt 0.003906 0.634766
vt 0.003906 0.634766
vt 0.035156 0.593750
vt 0.003906 0.593750
vt 0.003906 0.634766
vt 0.003906 0.593750
vt 0.035156 0.636719
vt 0.035156 0.636719
vt 0.003906 0.593750
vt 0.035156 0.593750
vt 0.035156 0.636719
vt 0.035156 0.593750
vt 0.113281 0.641602
vt 0.113281 0.641602
vt 0.035156 0.593750
vt 0.140625 0.631836
vt 0.113281 0.641602
vt 0.140625 0.631836
vt 0.149414 0.691406
vt 0.149414 0.691406
vt 0.140625 0.631836
vt 0.185547 0.678711
vt 0.275391 0.018555
vt 0.315430 0.045898
vt 0.266602 0.092773
vt 0.266602 0.092773
vt 0.315430 0.045898
vt 0.308594 0.136719
vt 0.266602 0.092773
vt 0.308594 0.136719
vt 0.285156 0.180664
vt 0.285156 0.180664
vt 0.308594 0.136719
vt 0.325195 0.188477
vt 0.285156 0.180664
vt 0.325195 0.188477
vt 0.328125 0.400391
vt 0.328125 0.400391
vt 0.325195 0.188477
vt 0.353516 0.319336
vt 0.328125 0.400391
vt 0.353516 0.319336
vt 0.352539 0.381836
vt 0.352539 0.381836
vt 0.353516 0.319336
vt 0.382812 0.401367
vt 0.352539 0.381836
vt 0.382812 0.401367
vt 0.350586 0.419922
vt 0.350586 0.419922
vt 0.382812 0.401367
vt 0.391602 0.514648
vt 0.350586 0.419922
vt 0.391602 0.514648
vt 0.348633 0.512695
vt 0.348633 0.512695
vt 0.391602 0.514648
vt 0.392578 0.644531
vt 0.348633 0.512695
vt 0.392578 0.644531
vt 0.344727 0.646484
vt 0.344727 0.646484
vt 0.392578 0.644531
vt 0.345703 0.672852
vt 0.344727 0.646484
vt 0.345703 0.672852
vt 0.310547 0.646484
vt 0.310547 0.646484
vt 0.345703 0.672852
vt 0.308594 0.667969
vt 0.310547 0.646484
vt 0.308594 0.667969
vt 0.270508 0.644531
vt 0.035156 0.669922
vt 0.003906 0.659180
vt 0.003906 0.670898
vt 0.003906 0.670898
vt 0.003906 0.659180
vt 0.035156 0.669922
vt 0.003906 0.670898
vt 0.035156 0.669922
vt 0.040039 0.727539
vt 0.040039 0.727539
vt 0.035156 0.669922
vt 0.119141 0.727539
vt 0.040039 0.727539
vt 0.119141 0.727539
vt 0.124023 0.780273
vt 0.124023 0.780273
vt 0.119141 0.727539
vt 0.160156 0.742188
vt 0.124023 0.780273
vt 0.160156 0.742188
vt 0.155273 0.824219
vt 0.155273 0.824219
vt 0.160156 0.742188
vt 0.241211 0.775391
vt 0.155273 0.824219
vt 0.241211 0.775391
vt 0.228516 0.846680
vt 0.228516 0.846680
vt 0.241211 0.775391
vt 0.293945 0.796875
vt 0.228516 0.846680
vt 0.293945 0.796875
vt 0.285156 0.889648
vt 0.285156 0.889648
vt 0.293945 0.796875
vt 0.228516 0.846680
vt 0.285156 0.889648
vt 0.228516 0.846680
vt 0.208008 0.892578
vt 0.208008 0.892578
vt 0.228516 0.846680
vt 0.152344 0.886719
vt 0.208008 0.892578
vt 0.152344 0.886719
vt 0.150391 0.957031
vt 0.150391 0.957031
vt 0.152344 0.886719
vt 0.097656 0.877930
vt 0.150391 0.957031
vt 0.097656 0.877930
vt 0.045898 0.916992
vt 0.045898 0.916992
vt 0.097656 0.877930
vt 0.124023 0.780273
vt 0.045898 0.916992
vt 0.124023 0.780273
vt 0.003906 0.772461
vt 0.003906 0.772461
vt 0.124023 0.780273
vt 0.119141 0.727539
vt 0.003906 0.772461
vt 0.119141 0.727539
vt 0.040039 0.727539
vt 0.040039 0.727539
vt 0.119141 0.727539
vt 0.035156 0.669922
vt 0.040039 0.727539
vt 0.035156 0.669922
vt 0.003906 0.727539
vt 0.003906 0.727539
vt 0.035156 0.669922
vt 0.003906 0.670898
vt 0.003906 0.727539
vt 0.003906 0.670898
vt 0.040039 0.727539
vt 0.138672 0.033203
vt 0.984375 0.033203
vt 0.984375 0.982422
vt 0.984375 0.033203
vt 0.984375 0.982422
vt 0.138672 0.033203
vt 0.138672 0.033203
vt 0.984375 0.982422
vt 0.039062 0.080078
vt 0.039062 0.080078
vt 0.984375 0.982422
vt 0.039062 0.982422
vt 0.039062 0.080078
vt 0.039062 0.982422
vt 0.138672 0.033203
vt 0.138672 0.033203
vt 0.039062 0.982422
vt 0.984375 0.982422
vt 0.138672 0.033203
vt 0.984375 0.982422
vt 0.984375 0.033203
vt 0.138672 0.033203
vt 0.984375 0.982422
vt 0.039062 0.080078
vt 0.039062 0.080078
vt 0.984375 0.982422
vt 0.039062 0.982422
vt 0.039062 0.080078
vt 0.039062 0.982422
vt 0.138672 0.033203
vt 0.138672 0.033203
vt 0.039062 0.982422
vt 0.984375 0.982422
vt 0.138672 0.033203
vt 0.984375 0.982422
vt 0.984375 0.033203
vt 8.664062 -1.820312
vt 9.214844 -1.820312
vt 9.205078 -0.953125
vt 6.285156 -0.953125
vt 6.275391 -1.820312
vt 6.826172 -1.820312
vt 6.285156 3.273438
vt 6.285156 3.085938
vt 7.744141 3.312500
vt 7.744141 3.312500
vt 6.285156 3.085938
vt 6.285156 2.531250
vt 7.744141 3.312500
vt 6.285156 2.531250
vt 7.744141 2.804688
vt 7.744141 2.804688
vt 6.285156 2.531250
vt 6.285156 0.710938
vt 7.744141 2.804688
vt 6.285156 0.710938
vt 7.744141 0.703125
vt 7.744141 0.703125
vt 6.285156 0.710938
vt 6.285156 -0.953125
vt 7.744141 0.703125
vt 6.285156 -0.953125
vt 7.744141 -0.953125
vt 7.744141 -0.953125
vt 6.285156 -0.953125
vt 6.826172 -1.820312
vt 7.744141 -0.953125
vt 6.826172 -1.820312
vt 7.744141 -1.820312
vt 7.744141 -1.820312
vt 8.664062 -1.820312
vt 7.744141 -0.953125
vt 7.744141 -0.953125
vt 8.664062 -1.820312
vt 9.205078 -0.953125
vt 7.744141 -0.953125
vt 9.205078 -0.953125
vt 7.744141 0.703125
vt 7.744141 0.703125
vt 9.205078 -0.953125
vt 9.205078 0.710938
vt 7.744141 0.703125
vt 9.205078 0.710938
vt 7.744141 2.804688
vt 7.744141 2.804688
vt 9.205078 0.710938
vt 9.205078 2.531250
vt 7.744141 2.804688
vt 9.205078 2.531250
vt 7.744141 3.312500
vt 7.744141 3.312500
vt 9.205078 2.531250
vt 9.205078 3.085938
vt 7.744141 3.312500
vt 9.205078 3.085938
vt 9.205078 3.273438
vt 7.744141 -1.960938
vt 6.810547 -1.960938
vt 7.744141 -1.039062
vt 7.744141 2.914062
vt 6.207031 0.710938
vt 6.207031 2.632812
vt 9.283203 3.406250
vt 9.283203 3.210938
vt 7.744141 3.445312
vt 7.744141 3.445312
vt 9.283203 3.210938
vt 9.283203 2.632812
vt 7.744141 3.445312
vt 9.283203 2.632812
vt 7.744141 2.914062
vt 7.744141 2.914062
vt 6.207031 2.632812
vt 7.744141 3.445312
vt 7.744141 3.445312
vt 6.207031 2.632812
vt 6.207031 3.210938
vt 7.744141 3.445312
vt 6.207031 3.210938
vt 6.207031 3.406250
vt 7.744141 -1.960938
vt 7.744141 -1.039062
vt 8.679688 -1.960938
vt 8.679688 -1.960938
vt 7.744141 -1.039062
vt 9.283203 -1.039062
vt 8.679688 -1.960938
vt 9.283203 -1.039062
vt 9.294922 -1.960938
vt 6.207031 -1.039062
vt 6.207031 0.710938
vt 7.744141 0.703125
vt 7.744141 0.703125
vt 6.207031 0.710938
vt 7.744141 2.914062
vt 7.744141 0.703125
vt 7.744141 2.914062
vt 9.283203 0.710938
vt 9.283203 0.710938
vt 7.744141 2.914062
vt 9.283203 2.632812
vt 9.283203 0.710938
vt 9.283203 -1.039062
vt 7.744141 0.703125
vt 7.744141 0.703125
vt 9.283203 -1.039062
vt 7.744141 -1.039062
vt 7.744141 0.703125
vt 7.744141 -1.039062
vt 6.207031 -1.039062
vt 6.207031 -1.039062
vt 7.744141 -1.039062
vt 6.810547 -1.960938
vt 6.207031 -1.039062
vt 6.810547 -1.960938
vt 6.195312 -1.960938
s 1
usemtl NDS_Material.769
f 1/1/1 2/2/1 3/3/1
f 4/4/2 5/5/2 6/6/2
f 7/7/3 8/8/3 9/9/3
f 10/10/4 11/11/4 12/12/4
f 13/13/5 14/14/5 15/15/5
f 16/16/6 17/17/6 18/18/6
f 19/19/7 20/20/7 21/21/7
f 22/22/8 23/23/8 24/24/8
f 25/25/9 26/26/9 27/27/9
f 28/28/10 29/29/10 30/30/10
f 31/31/11 32/32/11 33/33/11
f 34/34/12 35/35/12 36/36/12
f 37/37/13 38/38/13 39/39/13
f 40/40/14 41/41/14 42/42/14
f 43/43/15 44/44/15 45/45/15
f 46/46/16 47/47/16 48/48/16
f 49/49/17 50/50/17 51/51/17
f 52/52/18 53/53/18 54/54/18
f 55/55/19 56/56/19 57/57/19
f 58/58/20 59/59/20 60/60/20
f 61/61/21 62/62/21 63/63/21
f 64/64/22 65/65/22 66/66/22
f 67/67/23 68/68/23 69/69/23
f 70/70/24 71/71/24 72/72/24
f 73/73/25 74/74/25 75/75/25
f 76/76/26 77/77/26 78/78/26
f 79/79/27 80/80/27 81/81/27
f 82/82/28 83/83/28 84/84/28
f 85/85/29 86/86/29 87/87/29
f 88/88/30 89/89/30 90/90/30
f 91/91/31 92/92/31 93/93/31
f 94/94/32 95/95/32 96/96/32
f 97/97/33 98/98/33 99/99/33
f 100/100/34 101/101/34 102/102/34
f 103/103/35 104/104/35 105/105/35
f 106/106/36 107/107/36 108/108/36
f 109/109/37 110/110/37 111/111/37
f 112/112/38 113/113/38 114/114/38
f 115/115/39 116/116/39 117/117/39
f 118/118/40 119/119/40 120/120/40
f 121/121/41 122/122/41 123/123/41
f 124/124/42 125/125/42 126/126/42
f 127/127/43 128/128/43 129/129/43
f 130/130/44 131/131/44 132/132/44
f 133/133/45 134/134/45 135/135/45
f 136/136/46 137/137/46 138/138/46
f 139/139/47 140/140/47 141/141/47
f 142/142/48 143/143/48 144/144/48
f 145/145/49 146/146/49 147/147/49
f 148/148/50 149/149/50 150/150/50
f 151/151/51 152/152/51 153/153/51
f 154/154/52 155/155/52 156/156/52
f 157/157/53 158/158/53 159/159/53
f 160/160/54 161/161/54 162/162/54
f 163/163/55 164/164/55 165/165/55
f 166/166/56 167/167/56 168/168/56
f 169/169/57 170/170/57 171/171/57
f 172/172/58 173/173/58 174/174/58
f 175/175/59 176/176/59 177/177/59
f 178/178/60 179/179/60 180/180/60
f 181/181/61 182/182/61 183/183/61
f 184/184/62 185/185/62 186/186/62
f 187/187/63 188/188/63 189/189/63
f 190/190/64 191/191/64 192/192/64
f 193/193/65 194/194/65 195/195/65
f 196/196/66 197/197/66 198/198/66
f 199/199/67 200/200/67 201/201/67
f 202/202/68 203/203/68 204/204/68
f 205/205/69 206/206/69 207/207/69
f 208/208/70 209/209/70 210/210/70
f 211/211/71 212/212/71 213/213/71
f 214/214/72 215/215/72 216/216/72
f 217/217/73 218/218/73 219/219/73
f 220/220/74 221/221/74 222/222/74
f 223/223/75 224/224/75 225/225/75
f 226/226/76 227/227/76 228/228/76
f 229/229/77 230/230/77 231/231/77
f 232/232/78 233/233/78 234/234/78
f 235/235/79 236/236/79 237/237/79
f 238/238/80 239/239/80 240/240/80
f 241/241/81 242/242/81 243/243/81
f 244/244/82 245/245/82 246/246/82
f 247/247/83 248/248/83 249/249/83
f 250/250/84 251/251/84 252/252/84
f 253/253/85 254/254/85 255/255/85
f 256/256/86 257/257/86 258/258/86
f 259/259/87 260/260/87 261/261/87
f 262/262/88 263/263/88 264/264/88
f 265/265/89 266/266/89 267/267/89
f 268/268/90 269/269/90 270/270/90
f 271/271/91 272/272/91 273/273/91
f 274/274/92 275/275/92 276/276/92
f 277/277/93 278/278/93 279/279/93
f 280/280/94 281/281/94 282/282/94
f 283/283/95 284/284/95 285/285/95
f 286/286/96 287/287/96 288/288/96
f 289/289/97 290/290/97 291/291/97
f 292/292/98 293/293/98 294/294/98
f 295/295/99 296/296/99 297/297/99
f 298/298/100 299/299/100 300/300/100
f 301/301/101 302/302/101 303/303/101
f 304/304/102 305/305/102 306/306/102
f 307/307/103 308/308/103 309/309/103
f 310/310/104 311/311/104 312/312/104
f 313/313/105 314/314/105 315/315/105
f 316/316/106 317/317/106 318/318/106
f 319/319/107 320/320/107 321/321/107
f 322/322/108 323/323/108 324/324/108
f 325/325/109 326/326/109 327/327/109
f 328/328/110 329/329/110 330/330/110
f 331/331/111 332/332/111 333/333/111
f 334/334/112 335/335/112 336/336/112
f 337/337/113 338/338/113 339/339/113
f 340/340/114 341/341/114 342/342/114
f 343/343/115 344/344/115 345/345/115
f 346/346/116 347/347/116 348/348/116
f 349/349/117 350/350/117 351/351/117
f 352/352/118 353/353/118 354/354/118
f 355/355/119 356/356/119 357/357/119
f 358/358/120 359/359/120 360/360/120
f 361/361/121 362/362/121 363/363/121
f 364/364/122 365/365/122 366/366/122
f 367/367/123 368/368/123 369/369/123
f 370/370/124 371/371/124 372/372/124
f 373/373/125 374/374/125 375/375/125
f 376/376/126 377/377/126 378/378/126
f 379/379/127 380/380/127 381/381/127
f 382/382/128 383/383/128 384/384/128
f 385/385/129 386/386/129 387/387/129
f 388/388/130 389/389/130 390/390/130
f 391/391/131 392/392/131 393/393/131
f 394/394/132 395/395/132 396/396/132
f 397/397/133 398/398/133 399/399/133
f 400/400/134 401/401/134 402/402/134
f 403/403/135 404/404/135 405/405/135
f 406/406/136 407/407/136 408/408/136
f 409/409/137 410/410/137 411/411/137
f 412/412/138 413/413/138 414/414/138
f 415/415/139 416/416/139 417/417/139
f 418/418/140 419/419/140 420/420/140
f 421/421/141 422/422/141 423/423/141
f 424/424/142 425/425/142 426/426/142
f 427/427/143 428/428/143 429/429/143
f 430/430/144 431/431/144 432/432/144
f 433/433/145 434/434/145 435/435/145
f 436/436/146 437/437/146 438/438/146
f 439/439/147 440/440/147 441/441/147
f 442/442/148 443/443/148 444/444/148
f 445/445/149 446/446/149 447/447/149
f 448/448/150 449/449/150 450/450/150
f 451/451/151 452/452/151 453/453/151
f 454/454/152 455/455/152 456/456/152
f 457/457/153 458/458/153 459/459/153
f 460/460/154 461/461/154 462/462/154
f 463/463/155 464/464/155 465/465/155
f 466/466/156 467/467/156 468/468/156
f 469/469/157 470/470/157 471/471/157
f 472/472/158 473/473/158 474/474/158
f 475/475/159 476/476/159 477/477/159
f 478/478/160 479/479/160 480/480/160
f 481/481/161 482/482/161 483/483/161
f 484/484/162 485/485/162 486/486/162
f 487/487/163 488/488/163 489/489/163
f 490/490/164 491/491/164 492/492/164
f 493/493/165 494/494/165 495/495/165
f 496/496/166 497/497/166 498/498/166
f 499/499/167 500/500/167 501/501/167
f 502/502/168 503/503/168 504/504/168
f 505/505/169 506/506/169 507/507/169
f 508/508/170 509/509/170 510/510/170
f 511/511/171 512/512/171 513/513/171
f 514/514/172 515/515/172 516/516/172
f 517/517/173 518/518/173 519/519/173
f 520/520/174 521/521/174 522/522/174
f 523/523/175 524/524/175 525/525/175
f 526/526/176 527/527/176 528/528/176
f 529/529/177 530/530/177 531/531/177
f 532/532/178 533/533/178 534/534/178
f 535/535/179 536/536/179 537/537/179
f 538/538/180 539/539/180 540/540/180
f 541/541/181 542/542/181 543/543/181
f 544/544/182 545/545/182 546/546/182
f 547/547/183 548/548/183 549/549/183
f 550/550/184 551/551/184 552/552/184
f 553/553/185 554/554/185 555/555/185
f 556/556/186 557/557/186 558/558/186
f 559/559/187 560/560/187 561/561/187
f 562/562/188 563/563/188 564/564/188
f 565/565/189 566/566/189 567/567/189
f 568/568/190 569/569/190 570/570/190
f 571/571/191 572/572/191 573/573/191
f 574/574/192 575/575/192 576/576/192
f 577/577/193 578/578/193 579/579/193
f 580/580/194 581/581/194 582/582/194
f 583/583/195 584/584/195 585/585/195
f 586/586/196 587/587/196 588/588/196
f 589/589/197 590/590/197 591/591/197
f 592/592/198 593/593/198 594/594/198
f 595/595/199 596/596/199 597/597/199
f 598/598/200 599/599/200 600/600/200
f 601/601/201 602/602/201 603/603/201
f 604/604/202 605/605/202 606/606/202
f 607/607/203 608/608/203 609/609/203
f 610/610/204 611/611/204 612/612/204
f 613/613/205 614/614/205 615/615/205
f 616/616/206 617/617/206 618/618/206
f 619/619/207 620/620/207 621/621/207
f 622/622/208 623/623/208 624/624/208
f 625/625/209 626/626/209 627/627/209
f 628/628/210 629/629/210 630/630/210
f 631/631/211 632/632/211 633/633/211
f 634/634/212 635/635/212 636/636/212
f 637/637/213 638/638/213 639/639/213
f 640/640/214 641/641/214 642/642/214
f 643/643/215 644/644/215 645/645/215
f 646/646/216 647/647/216 648/648/216
f 649/649/217 650/650/217 651/651/217
f 652/652/218 653/653/218 654/654/218
f 655/655/219 656/656/219 657/657/219
f 658/658/220 659/659/220 660/660/220
f 661/661/221 662/662/221 663/663/221
f 664/664/222 665/665/222 666/666/222
f 667/667/223 668/668/223 669/669/223
f 670/670/224 671/671/224 672/672/224
f 673/673/225 674/674/225 675/675/225
f 676/676/226 677/677/226 678/678/226
f 679/679/227 680/680/227 681/681/227
f 682/682/228 683/683/228 684/684/228
f 685/685/229 686/686/229 687/687/229
f 688/688/230 689/689/230 690/690/230
f 691/691/231 692/692/231 693/693/231
f 694/694/232 695/695/232 696/696/232
f 697/697/233 698/698/233 699/699/233
f 700/700/234 701/701/234 702/702/234
f 703/703/235 704/704/235 705/705/235
f 706/706/236 707/707/236 708/708/236
f 709/709/237 710/710/237 711/711/237
f 712/712/238 713/713/238 714/714/238
f 715/715/239 716/716/239 717/717/239
f 718/718/240 719/719/240 720/720/240
f 721/721/241 722/722/241 723/723/241
f 724/724/242 725/725/242 726/726/242
f 727/727/243 728/728/243 729/729/243
f 730/730/244 731/731/244 732/732/244
f 733/733/245 734/734/245 735/735/245
f 736/736/246 737/737/246 738/738/246
f 739/739/247 740/740/247 741/741/247
f 742/742/248 743/743/248 744/744/248
f 745/745/249 746/746/249 747/747/249
f 748/748/250 749/749/250 750/750/250
f 751/751/251 752/752/251 753/753/251
f 754/754/252 755/755/252 756/756/252
f 757/757/253 758/758/253 759/759/253
f 760/760/254 761/761/254 762/762/254
f 763/763/255 764/764/255 765/765/255
f 766/766/256 767/767/256 768/768/256
f 769/769/257 770/770/257 771/771/257
f 772/772/258 773/773/258 774/774/258
f 775/775/259 776/776/259 777/777/259
f 778/778/260 779/779/260 780/780/260
f 781/781/261 782/782/261 783/783/261
f 784/784/262 785/785/262 786/786/262
f 787/787/263 788/788/263 789/789/263
f 790/790/264 791/791/264 792/792/264
f 793/793/265 794/794/265 795/795/265
f 796/796/266 797/797/266 798/798/266
f 799/799/267 800/800/267 801/801/267
f 802/802/268 803/803/268 804/804/268
f 805/805/269 806/806/269 807/807/269
f 808/808/270 809/809/270 810/810/270
f 811/811/271 812/812/271 813/813/271
f 814/814/272 815/815/272 816/816/272
f 817/817/273 818/818/273 819/819/273
f 820/820/274 821/821/274 822/822/274
f 823/823/275 824/824/275 825/825/275
f 826/826/276 827/827/276 828/828/276
f 829/829/277 830/830/277 831/831/277
f 832/832/278 833/833/278 834/834/278
f 835/835/279 836/836/279 837/837/279
f 838/838/280 839/839/280 840/840/280
f 841/841/281 842/842/281 843/843/281
f 844/844/282 845/845/282 846/846/282
f 847/847/283 848/848/283 849/849/283
f 850/850/284 851/851/284 852/852/284
f 853/853/285 854/854/285 855/855/285
f 856/856/286 857/857/286 858/858/286
f 859/859/287 860/860/287 861/861/287
f 862/862/288 863/863/288 864/864/288
f 865/865/289 866/866/289 867/867/289
f 868/868/290 869/869/290 870/870/290
f 871/871/291 872/872/291 873/873/291
f 874/874/292 875/875/292 876/876/292
f 877/877/293 878/878/293 879/879/293
f 880/880/294 881/881/294 882/882/294
f 883/883/295 884/884/295 885/885/295
f 886/886/296 887/887/296 888/888/296
f 889/889/297 890/890/297 891/891/297
f 892/892/298 893/893/298 894/894/298
f 895/895/299 896/896/299 897/897/299
f 898/898/300 899/899/300 900/900/300
f 901/901/301 902/902/301 903/903/301
f 904/904/302 905/905/302 906/906/302
f 907/907/303 908/908/303 909/909/303
f 910/910/304 911/911/304 912/912/304
f 913/913/305 914/914/305 915/915/305
f 916/916/306 917/917/306 918/918/306
f 919/919/307 920/920/307 921/921/307
f 922/922/308 923/923/308 924/924/308
f 925/925/309 926/926/309 927/927/309
f 928/928/310 929/929/310 930/930/310
f 931/931/311 932/932/311 933/933/311
f 934/934/312 935/935/312 936/936/312
f 937/937/313 938/938/313 939/939/313
f 940/940/314 941/941/314 942/942/314
f 943/943/315 944/944/315 945/945/315
f 946/946/316 947/947/316 948/948/316
f 949/949/317 950/950/317 951/951/317
f 952/952/318 953/953/318 954/954/318
f 955/955/319 956/956/319 957/957/319
f 958/958/320 959/959/320 960/960/320
f 961/961/321 962/962/321 963/963/321
f 964/964/322 965/965/322 966/966/322
f 967/967/323 968/968/323 969/969/323
f 970/970/324 971/971/324 972/972/324
f 973/973/325 974/974/325 975/975/325
f 976/976/326 977/977/326 978/978/326
f 979/979/327 980/980/327 981/981/327
f 982/982/328 983/983/328 984/984/328
usemtl NDS_Material.770
f 985/985/329 986/986/329 987/987/329
f 988/988/330 989/989/330 990/990/330
f 991/991/331 992/992/331 993/993/331
f 994/994/332 995/995/332 996/996/332
f 997/997/333 998/998/333 999/999/333
f 1000/1000/334 1001/1001/334 1002/1002/334
f 1003/1003/335 1004/1004/335 1005/1005/335
f 1006/1006/336 1007/1007/336 1008/1008/336
f 1009/1009/337 1010/1010/337 1011/1011/337
f 1012/1012/338 1013/1013/338 1014/1014/338
f 1015/1015/339 1016/1016/339 1017/1017/339
f 1018/1018/340 1019/1019/340 1020/1020/340
usemtl NDS_Material.771
f 1021/1021/341 1022/1022/341 1023/1023/341
f 1024/1024/342 1025/1025/342 1026/1026/342
f 1027/1027/343 1028/1028/343 1029/1029/343
f 1030/1030/344 1031/1031/344 1032/1032/344
f 1033/1033/345 1034/1034/345 1035/1035/345
f 1036/1036/346 1037/1037/346 1038/1038/346
f 1039/1039/347 1040/1040/347 1041/1041/347
f 1042/1042/348 1043/1043/348 1044/1044/348
f 1045/1045/349 1046/1046/349 1047/1047/349
f 1048/1048/350 1049/1049/350 1050/1050/350
f 1051/1051/351 1052/1052/351 1053/1053/351
f 1054/1054/352 1055/1055/352 1056/1056/352
f 1057/1057/353 1058/1058/353 1059/1059/353
f 1060/1060/354 1061/1061/354 1062/1062/354
f 1063/1063/355 1064/1064/355 1065/1065/355
f 1066/1066/356 1067/1067/356 1068/1068/356
f 1069/1069/357 1070/1070/357 1071/1071/357
f 1072/1072/358 1073/1073/358 1074/1074/358
f 1075/1075/359 1076/1076/359 1077/1077/359
f 1078/1078/360 1079/1079/360 1080/1080/360
usemtl NDS_Material.772
f 1081/1081/361 1082/1082/361 1083/1083/361
f 1084/1084/362 1085/1085/362 1086/1086/362
f 1087/1087/363 1088/1088/363 1089/1089/363
f 1090/1090/364 1091/1091/364 1092/1092/364
f 1093/1093/365 1094/1094/365 1095/1095/365
f 1096/1096/366 1097/1097/366 1098/1098/366
f 1099/1099/367 1100/1100/367 1101/1101/367
f 1102/1102/368 1103/1103/368 1104/1104/368
f 1105/1105/369 1106/1106/369 1107/1107/369
f 1108/1108/370 1109/1109/370 1110/1110/370
f 1111/1111/371 1112/1112/371 1113/1113/371
f 1114/1114/372 1115/1115/372 1116/1116/372
f 1117/1117/373 1118/1118/373 1119/1119/373
f 1120/1120/374 1121/1121/374 1122/1122/374
f 1123/1123/375 1124/1124/375 1125/1125/375
f 1126/1126/376 1127/1127/376 1128/1128/376
f 1129/1129/377 1130/1130/377 1131/1131/377
f 1132/1132/378 1133/1133/378 1134/1134/378
f 1135/1135/379 1136/1136/379 1137/1137/379
f 1138/1138/380 1139/1139/380 1140/1140/380
